<svg width="413" height="285" viewBox="0 0 413 285" fill="none" xmlns="http://www.w3.org/2000/svg">
<path d="M17.5302 17.76V0.5L38.7436 0.5L60.457 0.5L103.884 0.5L147.311 0.5L190.738 0.5L234.165 0.5L277.591 0.5L321.018 0.5L342.732 0.5L363.945 0.5V17.76V35.52V71.0401V142.08V213.12V248.64V266.4V283.66H342.732H321.018H277.591H234.165H190.738H147.311H103.884H60.457H38.7436H17.5302V266.4V248.64V230.88V230.679L17.391 230.534L0.5 212.919L0.5 177.6L0.5 142.08L0.5 106.56L0.5 71.0401L0.5 35.721L17.391 18.1061L17.5302 17.961V17.76Z" fill="#3F518C" stroke="black"/>
<path d="M29.4512 7.79866L125.766 7.79866V23.8288L29.4512 23.8288V7.79866Z" fill="#333333" stroke="black"/>
<path d="M33.1006 11.4479H41.8321V20.1794H33.1006V11.4479Z" fill="#010F0F" stroke="black"/>
<path d="M46.4814 11.4477H55.213V20.1792H46.4814V11.4477Z" fill="#010F0F" stroke="black"/>
<path d="M59.8623 11.4477H68.5938V20.1792H59.8623V11.4477Z" fill="#010F0F" stroke="black"/>
<path d="M73.2432 11.4478H81.9747V20.1793H73.2432V11.4478Z" fill="#010F0F" stroke="black"/>
<path d="M86.624 11.4478H95.3555V20.1793H86.624V11.4478Z" fill="#010F0F" stroke="black"/>
<path d="M100.005 11.4478H108.736V20.1793H100.005V11.4478Z" fill="#010F0F" stroke="black"/>
<path d="M113.386 11.4478H122.117V20.1794H113.386V11.4478Z" fill="#010F0F" stroke="black"/>
<path d="M143.796 7.79887L280.254 7.79887V23.829L143.796 23.829V7.79887Z" fill="#333333" stroke="black"/>
<path d="M147.446 11.4481H156.177V20.1796H147.446V11.4481Z" fill="#010F0F" stroke="black"/>
<path d="M160.827 11.4481H169.558V20.1797H160.827V11.4481Z" fill="#010F0F" stroke="black"/>
<path d="M174.208 11.4477H182.939V20.1792H174.208V11.4477Z" fill="#010F0F" stroke="black"/>
<path d="M187.588 11.4477H196.32V20.1792H187.588V11.4477Z" fill="#010F0F" stroke="black"/>
<path d="M200.969 11.4478H209.701V20.1793H200.969V11.4478Z" fill="#010F0F" stroke="black"/>
<path d="M214.35 11.4478H223.082V20.1793H214.35V11.4478Z" fill="#010F0F" stroke="black"/>
<path d="M227.731 11.4478H236.462V20.1793H227.731V11.4478Z" fill="#010F0F" stroke="black"/>
<path d="M241.112 11.4478H249.843V20.1793H241.112V11.4478Z" fill="#010F0F" stroke="black"/>
<path d="M254.493 11.4479H263.224V20.1794H254.493V11.4479Z" fill="#010F0F" stroke="black"/>
<path d="M267.873 11.4479H276.605V20.1794H267.873V11.4479Z" fill="#010F0F" stroke="black"/>
<path d="M29.4507 260.332H112.385V276.362H29.4507V260.332Z" fill="#333333" stroke="black"/>
<path d="M33.1001 263.981H41.8316V272.712H33.1001V263.981Z" fill="#333333" stroke="black"/>
<path d="M46.481 263.981H55.2125V272.712H46.481V263.981Z" fill="#333333" stroke="black"/>
<path d="M59.8613 263.981H68.5928V272.712H59.8613V263.981Z" fill="#333333" stroke="black"/>
<path d="M73.2422 263.981H81.9737V272.712H73.2422V263.981Z" fill="#333333" stroke="black"/>
<path d="M86.623 263.981H95.3546V272.712H86.623V263.981Z" fill="#333333" stroke="black"/>
<path d="M100.004 263.981H108.736V272.712H100.004V263.981Z" fill="#333333" stroke="black"/>
<path d="M130.416 260.331H240.112V276.362H130.416V260.331Z" fill="#333333" stroke="black"/>
<path d="M134.065 263.981H142.796V272.712H134.065V263.981Z" fill="#010F0F" stroke="black"/>
<path d="M147.446 263.981H156.177V272.712H147.446V263.981Z" fill="#010F0F" stroke="black"/>
<path d="M160.827 263.981H169.558V272.712H160.827V263.981Z" fill="#010F0F" stroke="black"/>
<path d="M174.208 263.981H182.939V272.712H174.208V263.981Z" fill="#010F0F" stroke="black"/>
<path d="M187.588 263.981H196.32V272.712H187.588V263.981Z" fill="#010F0F" stroke="black"/>
<path d="M200.969 263.981H209.701V272.712H200.969V263.981Z" fill="#010F0F" stroke="black"/>
<path d="M214.35 263.981H223.082V272.712H214.35V263.981Z" fill="#010F0F" stroke="black"/>
<path d="M227.731 263.981H236.462V272.712H227.731V263.981Z" fill="#010F0F" stroke="black"/>
<path d="M29.4512 64.2415L236.462 64.2415V94.3823L29.4512 94.3823V64.2415Z" fill="#333333" stroke="black"/>
<path d="M311.665 240.125C311.665 238.252 313.184 236.733 315.058 236.733H348.631C350.505 236.733 352.024 238.252 352.024 240.125V273.699C352.024 275.573 350.505 277.092 348.631 277.092H315.058C313.184 277.092 311.665 275.573 311.665 273.699V240.125Z" fill="#D9D9D9" stroke="black"/>
<path d="M34.2902 42.5753C34.2902 48.7486 29.2857 53.7531 23.1124 53.7531C16.9391 53.7531 11.9346 48.7486 11.9346 42.5753C11.9346 36.4019 16.9391 31.3975 23.1124 31.3975C29.2857 31.3975 34.2902 36.4019 34.2902 42.5753Z" fill="#D9D9D9" stroke="black"/>
<path d="M343.023 256.912C343.023 263.086 338.018 268.09 331.845 268.09C325.671 268.09 320.667 263.086 320.667 256.912C320.667 250.739 325.671 245.734 331.845 245.734C338.018 245.734 343.023 250.739 343.023 256.912Z" fill="#832827" stroke="black"/>
<path d="M321.613 15.8137C321.613 20.2403 318.025 23.8288 313.598 23.8288C309.171 23.8288 305.583 20.2403 305.583 15.8137C305.583 11.3871 309.171 7.79863 313.598 7.79863C318.025 7.79863 321.613 11.3871 321.613 15.8137Z" fill="#D9D9D9" stroke="black"/>
<path d="M34.2902 203.389C34.2902 209.562 29.2857 214.566 23.1124 214.566C16.9391 214.566 11.9346 209.562 11.9346 203.389C11.9346 197.215 16.9391 192.211 23.1124 192.211C29.2857 192.211 34.2902 197.215 34.2902 203.389Z" fill="#D9D9D9" stroke="black"/>
<path opacity="0.8" fill-rule="evenodd" clip-rule="evenodd" d="M109.236 56.9292L37.4663 56.9292V54.9829L109.236 54.9829V56.9292Z" fill="#D9D9D9" stroke="black"/>
<path opacity="0.8" fill-rule="evenodd" clip-rule="evenodd" d="M210.201 56.9295L143.296 56.9295V54.9832L210.201 54.9832V56.9295Z" fill="#D9D9D9" stroke="black"/>
<path opacity="0.8" fill-rule="evenodd" clip-rule="evenodd" d="M210.201 240.125L28.9512 240.125L28.9512 238.179L210.201 238.179L210.201 240.125Z" fill="#D9D9D9" stroke="black"/>
<path d="M165.08 48.6577L165.08 48.1577L164.58 48.1577L163.682 48.1577L163.182 48.1577L163.182 48.6577L163.182 49.5345L162.928 49.5345C162.541 49.5345 162.18 49.6056 161.862 49.7717C161.655 49.8798 161.475 50.0197 161.328 50.1907C161.279 49.8942 161.189 49.6174 161.054 49.3648C160.838 48.963 160.537 48.6437 160.15 48.4226C159.767 48.2041 159.342 48.0996 158.886 48.0996C158.432 48.0996 158.009 48.2034 157.627 48.4197L157.627 48.42C157.239 48.6407 156.936 48.9596 156.721 49.3613C156.567 49.6464 156.471 49.9628 156.427 50.3037L155.917 48.5201L155.813 48.1577L155.436 48.1577L154.561 48.1577L154.186 48.1577L154.081 48.5182L153.737 49.701L153.393 48.5178L153.288 48.1577L152.913 48.1577L152.038 48.1577L151.661 48.1577L151.557 48.5201L150.842 51.0185L150.842 48.6577L150.842 48.1577L150.342 48.1577L147.472 48.1577L147.267 48.1577L146.972 48.1577L146.767 48.1577L145.869 48.1577L145.369 48.1577L145.369 48.6577L145.369 49.3928L144.85 48.422L144.709 48.1577L144.409 48.1577L143.418 48.1577L142.575 48.1577L142.979 48.8973L143.656 50.1367C143.527 50.2486 143.415 50.38 143.324 50.5311L143.323 50.5324C143.147 50.8268 143.07 51.1619 143.07 51.517C143.07 51.8698 143.146 52.2028 143.316 52.498C143.487 52.7971 143.736 53.0245 144.046 53.179C144.358 53.3366 144.713 53.4041 145.091 53.4041L146.767 53.4041L146.981 53.4041L147.267 53.4041L147.481 53.4041L150.159 53.4041L150.342 53.4041L150.823 53.4041L150.842 53.4041L151.803 53.4041L152.198 53.4041L152.29 53.0198L152.547 51.937L152.833 53.0307L152.931 53.4041L153.317 53.4041L154.157 53.4041L154.542 53.4041L154.64 53.0312L154.927 51.9408L155.184 53.02L155.275 53.4041L155.67 53.4041L156.651 53.4041L157.314 53.4041L157.132 52.7666L157.13 52.7598C157.276 52.9079 157.442 53.0352 157.627 53.1399C158.009 53.3576 158.432 53.4622 158.886 53.4622C159.341 53.4622 159.766 53.358 160.148 53.1401C160.521 52.9291 160.814 52.6267 161.027 52.2473C161.056 52.3177 161.088 52.3865 161.126 52.4535C161.293 52.7578 161.537 52.9944 161.844 53.1596C162.16 53.3307 162.52 53.4041 162.905 53.4041L164.58 53.4041L165.08 53.4041L165.08 52.9041L165.08 48.6577ZM163.182 51.254L163.182 51.6701L163.077 51.6701C162.956 51.6701 162.898 51.649 162.878 51.6382L162.878 51.6381L162.873 51.636C162.847 51.6222 162.841 51.6121 162.836 51.6037L162.836 51.6037L162.833 51.5968C162.822 51.5769 162.808 51.5383 162.808 51.4652C162.808 51.3947 162.821 51.3528 162.835 51.3266L162.835 51.3266L162.836 51.3245C162.842 51.3141 162.85 51.3009 162.881 51.2843C162.9 51.2744 162.955 51.254 163.073 51.254L163.182 51.254ZM147.472 49.8979L148.944 49.8979L148.944 49.9118L147.628 49.9118L147.267 49.9118L147.267 49.8979L147.472 49.8979ZM147.628 51.6521L148.944 51.6521L148.944 51.6639L147.481 51.6639L147.267 51.6639L147.267 51.6521L147.628 51.6521ZM145.259 51.3846L145.369 51.3846L145.369 51.6701L145.264 51.6701C145.136 51.6701 145.069 51.6506 145.04 51.6377L145.04 51.6376L145.033 51.6347C145.021 51.6293 145.015 51.6251 145.012 51.6233L145.011 51.6209C145.009 51.6182 144.994 51.5917 144.994 51.517C144.994 51.4807 144.998 51.4568 145.001 51.4426C145.003 51.4356 145.005 51.431 145.006 51.4284L145.007 51.4256L145.007 51.425C145.01 51.4233 145.015 51.4204 145.024 51.4169C145.057 51.403 145.129 51.3846 145.259 51.3846ZM158.402 51.3425L158.402 51.3425L158.401 51.3399C158.346 51.2143 158.308 51.0339 158.308 50.7809C158.308 50.5279 158.346 50.3475 158.401 50.2219L158.402 50.2193C158.458 50.0888 158.525 50.0156 158.593 49.9711C158.663 49.9247 158.754 49.8938 158.886 49.8938C159.017 49.8938 159.109 49.9247 159.179 49.9711L159.454 49.5534L159.179 49.9711C159.247 50.016 159.315 50.0897 159.372 50.2206C159.426 50.347 159.464 50.528 159.464 50.7809C159.464 51.0339 159.426 51.2149 159.372 51.3412C159.315 51.4721 159.247 51.5459 159.179 51.5907C159.109 51.6371 159.017 51.6681 158.886 51.6681C158.754 51.6681 158.663 51.6371 158.593 51.5907C158.525 51.5462 158.458 51.4731 158.402 51.3425Z" fill="white" stroke="black"/>
<mask id="path-47-outside-1_814_451" maskUnits="userSpaceOnUse" x="36.6846" y="46.9621" width="35" height="7" fill="black">
<rect fill="white" x="36.6846" y="46.9621" width="35" height="7"/>
<path d="M68.7225 48.6576L69.6846 48.6576L68.2186 52.9041L67.0616 52.9041L65.5977 48.6576L66.5598 48.6576L67.6235 51.9337L67.6567 51.9337L68.7225 48.6576ZM68.7826 50.3267L66.5101 50.3267L66.5101 49.6259L68.7826 49.6259L68.7826 50.3267Z"/>
<path d="M61.5348 52.9041L61.5348 48.6576L62.3103 48.6576L64.1577 51.3303L64.1888 51.3303L64.1888 48.6576L65.0866 48.6576L65.0866 52.9041L64.2987 52.9041L62.4658 50.2334L62.4284 50.2334L62.4284 52.9041L61.5348 52.9041Z"/>
<path d="M60.061 48.6576L61.0231 48.6576L59.5572 52.9041L58.4002 52.9041L56.9363 48.6576L57.8984 48.6576L58.9621 51.9337L58.9953 51.9337L60.061 48.6576ZM60.1212 50.3267L57.8487 50.3267L57.8487 49.6259L60.1212 49.6259L60.1212 50.3267Z"/>
<path d="M56.4252 48.6576L56.4252 52.9041L55.5274 52.9041L55.5274 49.3978L53.7069 49.3978L53.7069 48.6576L56.4252 48.6576Z"/>
<path d="M49.3754 50.7808C49.3754 50.3178 49.4632 49.9238 49.6387 49.5989C49.8129 49.2741 50.0507 49.026 50.352 48.8546C50.652 48.6845 50.9892 48.5995 51.3639 48.5995C51.7412 48.5995 52.0799 48.6852 52.3799 48.8566C52.6798 49.0281 52.9169 49.2762 53.0911 49.601C53.2652 49.9259 53.3523 50.3191 53.3523 50.7808C53.3523 51.2439 53.2652 51.6379 53.0911 51.9627C52.9169 52.2876 52.6798 52.535 52.3799 52.705C52.0799 52.8764 51.7412 52.9621 51.3639 52.9621C50.9892 52.9621 50.652 52.8764 50.352 52.705C50.0507 52.535 49.8129 52.2876 49.6387 51.9627C49.4632 51.6379 49.3754 51.2439 49.3754 50.7808ZM50.2856 50.7808C50.2856 51.0808 50.3306 51.3338 50.4204 51.5397C50.5089 51.7457 50.634 51.9019 50.7957 52.0083C50.9575 52.1148 51.1468 52.168 51.3639 52.168C51.5809 52.168 51.7703 52.1148 51.932 52.0083C52.0937 51.9019 52.2195 51.7457 52.3094 51.5397C52.3978 51.3338 52.4421 51.0808 52.4421 50.7808C52.4421 50.4809 52.3978 50.2279 52.3094 50.0219C52.2195 49.816 52.0937 49.6598 51.932 49.5533C51.7703 49.4469 51.5809 49.3937 51.3639 49.3937C51.1468 49.3937 50.9575 49.4469 50.7957 49.5533C50.634 49.6598 50.5089 49.816 50.4204 50.0219C50.3306 50.2279 50.2856 50.4809 50.2856 50.7808Z"/>
<path d="M45.8945 51.5314C45.9236 51.6323 45.9643 51.7215 46.0169 51.7989C46.0694 51.8777 46.1337 51.944 46.2097 51.998C46.2844 52.0533 46.3701 52.0954 46.4668 52.1244C46.5622 52.1535 46.6679 52.168 46.7841 52.168C47.0011 52.168 47.1918 52.1141 47.3563 52.0063C47.5195 51.8984 47.6466 51.7415 47.7379 51.5356C47.8291 51.331 47.8747 51.0808 47.8747 50.785C47.8747 50.4892 47.8298 50.2376 47.7399 50.0302C47.6501 49.8229 47.5229 49.6646 47.3584 49.5554C47.1939 49.4476 46.9997 49.3937 46.7758 49.3937C46.5726 49.3937 46.3991 49.4296 46.2553 49.5015C46.1102 49.5748 45.9996 49.6777 45.9236 49.8104C45.8462 49.9431 45.8075 50.1 45.8075 50.2811L45.625 50.2542L46.7198 50.2542L46.7198 50.9301L44.9428 50.9301L44.9428 50.3952C44.9428 50.0219 45.0216 49.7012 45.1792 49.4331C45.3368 49.1663 45.5538 48.9603 45.8303 48.8152C46.1067 48.6714 46.4233 48.5995 46.7799 48.5995C47.178 48.5995 47.5278 48.6873 47.8291 48.8629C48.1304 49.0398 48.3654 49.2907 48.5341 49.6155C48.7013 49.9418 48.785 50.3288 48.785 50.7767C48.785 51.1209 48.7352 51.4278 48.6357 51.6973C48.5348 51.9682 48.3938 52.1977 48.2127 52.3857C48.0316 52.5737 47.8208 52.7168 47.5803 52.8149C47.3398 52.9131 47.0792 52.9621 46.7986 52.9621C46.5581 52.9621 46.3341 52.9269 46.1268 52.8564C45.9194 52.7873 45.7356 52.6891 45.5752 52.5619C45.4135 52.4348 45.2815 52.2834 45.1792 52.1079C45.0769 51.9337 45.0112 51.7415 44.9822 51.5314L45.8945 51.5314Z"/>
<path d="M42.0192 52.9041L42.0192 48.6576L42.917 48.6576L42.917 52.9041L42.0192 52.9041Z"/>
<path d="M37.7287 52.9041L37.7287 48.6576L38.5042 48.6576L40.3516 51.3303L40.3827 51.3303L40.3827 48.6576L41.2805 48.6576L41.2805 52.9041L40.4926 52.9041L38.6597 50.2334L38.6223 50.2334L38.6223 52.9041L37.7287 52.9041Z"/>
</mask>
<path d="M68.7225 48.6576L69.6846 48.6576L68.2186 52.9041L67.0616 52.9041L65.5977 48.6576L66.5598 48.6576L67.6235 51.9337L67.6567 51.9337L68.7225 48.6576ZM68.7826 50.3267L66.5101 50.3267L66.5101 49.6259L68.7826 49.6259L68.7826 50.3267Z" fill="white"/>
<path d="M61.5348 52.9041L61.5348 48.6576L62.3103 48.6576L64.1577 51.3303L64.1888 51.3303L64.1888 48.6576L65.0866 48.6576L65.0866 52.9041L64.2987 52.9041L62.4658 50.2334L62.4284 50.2334L62.4284 52.9041L61.5348 52.9041Z" fill="white"/>
<path d="M60.061 48.6576L61.0231 48.6576L59.5572 52.9041L58.4002 52.9041L56.9363 48.6576L57.8984 48.6576L58.9621 51.9337L58.9953 51.9337L60.061 48.6576ZM60.1212 50.3267L57.8487 50.3267L57.8487 49.6259L60.1212 49.6259L60.1212 50.3267Z" fill="white"/>
<path d="M56.4252 48.6576L56.4252 52.9041L55.5274 52.9041L55.5274 49.3978L53.7069 49.3978L53.7069 48.6576L56.4252 48.6576Z" fill="white"/>
<path d="M49.3754 50.7808C49.3754 50.3178 49.4632 49.9238 49.6387 49.5989C49.8129 49.2741 50.0507 49.026 50.352 48.8546C50.652 48.6845 50.9892 48.5995 51.3639 48.5995C51.7412 48.5995 52.0799 48.6852 52.3799 48.8566C52.6798 49.0281 52.9169 49.2762 53.0911 49.601C53.2652 49.9259 53.3523 50.3191 53.3523 50.7808C53.3523 51.2439 53.2652 51.6379 53.0911 51.9627C52.9169 52.2876 52.6798 52.535 52.3799 52.705C52.0799 52.8764 51.7412 52.9621 51.3639 52.9621C50.9892 52.9621 50.652 52.8764 50.352 52.705C50.0507 52.535 49.8129 52.2876 49.6387 51.9627C49.4632 51.6379 49.3754 51.2439 49.3754 50.7808ZM50.2856 50.7808C50.2856 51.0808 50.3306 51.3338 50.4204 51.5397C50.5089 51.7457 50.634 51.9019 50.7957 52.0083C50.9575 52.1148 51.1468 52.168 51.3639 52.168C51.5809 52.168 51.7703 52.1148 51.932 52.0083C52.0937 51.9019 52.2195 51.7457 52.3094 51.5397C52.3978 51.3338 52.4421 51.0808 52.4421 50.7808C52.4421 50.4809 52.3978 50.2279 52.3094 50.0219C52.2195 49.816 52.0937 49.6598 51.932 49.5533C51.7703 49.4469 51.5809 49.3937 51.3639 49.3937C51.1468 49.3937 50.9575 49.4469 50.7957 49.5533C50.634 49.6598 50.5089 49.816 50.4204 50.0219C50.3306 50.2279 50.2856 50.4809 50.2856 50.7808Z" fill="white"/>
<path d="M45.8945 51.5314C45.9236 51.6323 45.9643 51.7215 46.0169 51.7989C46.0694 51.8777 46.1337 51.944 46.2097 51.998C46.2844 52.0533 46.3701 52.0954 46.4668 52.1244C46.5622 52.1535 46.6679 52.168 46.7841 52.168C47.0011 52.168 47.1918 52.1141 47.3563 52.0063C47.5195 51.8984 47.6466 51.7415 47.7379 51.5356C47.8291 51.331 47.8747 51.0808 47.8747 50.785C47.8747 50.4892 47.8298 50.2376 47.7399 50.0302C47.6501 49.8229 47.5229 49.6646 47.3584 49.5554C47.1939 49.4476 46.9997 49.3937 46.7758 49.3937C46.5726 49.3937 46.3991 49.4296 46.2553 49.5015C46.1102 49.5748 45.9996 49.6777 45.9236 49.8104C45.8462 49.9431 45.8075 50.1 45.8075 50.2811L45.625 50.2542L46.7198 50.2542L46.7198 50.9301L44.9428 50.9301L44.9428 50.3952C44.9428 50.0219 45.0216 49.7012 45.1792 49.4331C45.3368 49.1663 45.5538 48.9603 45.8303 48.8152C46.1067 48.6714 46.4233 48.5995 46.7799 48.5995C47.178 48.5995 47.5278 48.6873 47.8291 48.8629C48.1304 49.0398 48.3654 49.2907 48.5341 49.6155C48.7013 49.9418 48.785 50.3288 48.785 50.7767C48.785 51.1209 48.7352 51.4278 48.6357 51.6973C48.5348 51.9682 48.3938 52.1977 48.2127 52.3857C48.0316 52.5737 47.8208 52.7168 47.5803 52.8149C47.3398 52.9131 47.0792 52.9621 46.7986 52.9621C46.5581 52.9621 46.3341 52.9269 46.1268 52.8564C45.9194 52.7873 45.7356 52.6891 45.5752 52.5619C45.4135 52.4348 45.2815 52.2834 45.1792 52.1079C45.0769 51.9337 45.0112 51.7415 44.9822 51.5314L45.8945 51.5314Z" fill="white"/>
<path d="M42.0192 52.9041L42.0192 48.6576L42.917 48.6576L42.917 52.9041L42.0192 52.9041Z" fill="white"/>
<path d="M37.7287 52.9041L37.7287 48.6576L38.5042 48.6576L40.3516 51.3303L40.3827 51.3303L40.3827 48.6576L41.2805 48.6576L41.2805 52.9041L40.4926 52.9041L38.6597 50.2334L38.6223 50.2334L38.6223 52.9041L37.7287 52.9041Z" fill="white"/>
<path d="M68.7225 48.6576L69.6846 48.6576L68.2186 52.9041L67.0616 52.9041L65.5977 48.6576L66.5598 48.6576L67.6235 51.9337L67.6567 51.9337L68.7225 48.6576ZM68.7826 50.3267L66.5101 50.3267L66.5101 49.6259L68.7826 49.6259L68.7826 50.3267Z" stroke="black" stroke-width="2" mask="url(#path-47-outside-1_814_451)"/>
<path d="M61.5348 52.9041L61.5348 48.6576L62.3103 48.6576L64.1577 51.3303L64.1888 51.3303L64.1888 48.6576L65.0866 48.6576L65.0866 52.9041L64.2987 52.9041L62.4658 50.2334L62.4284 50.2334L62.4284 52.9041L61.5348 52.9041Z" stroke="black" stroke-width="2" mask="url(#path-47-outside-1_814_451)"/>
<path d="M60.061 48.6576L61.0231 48.6576L59.5572 52.9041L58.4002 52.9041L56.9363 48.6576L57.8984 48.6576L58.9621 51.9337L58.9953 51.9337L60.061 48.6576ZM60.1212 50.3267L57.8487 50.3267L57.8487 49.6259L60.1212 49.6259L60.1212 50.3267Z" stroke="black" stroke-width="2" mask="url(#path-47-outside-1_814_451)"/>
<path d="M56.4252 48.6576L56.4252 52.9041L55.5274 52.9041L55.5274 49.3978L53.7069 49.3978L53.7069 48.6576L56.4252 48.6576Z" stroke="black" stroke-width="2" mask="url(#path-47-outside-1_814_451)"/>
<path d="M49.3754 50.7808C49.3754 50.3178 49.4632 49.9238 49.6387 49.5989C49.8129 49.2741 50.0507 49.026 50.352 48.8546C50.652 48.6845 50.9892 48.5995 51.3639 48.5995C51.7412 48.5995 52.0799 48.6852 52.3799 48.8566C52.6798 49.0281 52.9169 49.2762 53.0911 49.601C53.2652 49.9259 53.3523 50.3191 53.3523 50.7808C53.3523 51.2439 53.2652 51.6379 53.0911 51.9627C52.9169 52.2876 52.6798 52.535 52.3799 52.705C52.0799 52.8764 51.7412 52.9621 51.3639 52.9621C50.9892 52.9621 50.652 52.8764 50.352 52.705C50.0507 52.535 49.8129 52.2876 49.6387 51.9627C49.4632 51.6379 49.3754 51.2439 49.3754 50.7808ZM50.2856 50.7808C50.2856 51.0808 50.3306 51.3338 50.4204 51.5397C50.5089 51.7457 50.634 51.9019 50.7957 52.0083C50.9575 52.1148 51.1468 52.168 51.3639 52.168C51.5809 52.168 51.7703 52.1148 51.932 52.0083C52.0937 51.9019 52.2195 51.7457 52.3094 51.5397C52.3978 51.3338 52.4421 51.0808 52.4421 50.7808C52.4421 50.4809 52.3978 50.2279 52.3094 50.0219C52.2195 49.816 52.0937 49.6598 51.932 49.5533C51.7703 49.4469 51.5809 49.3937 51.3639 49.3937C51.1468 49.3937 50.9575 49.4469 50.7957 49.5533C50.634 49.6598 50.5089 49.816 50.4204 50.0219C50.3306 50.2279 50.2856 50.4809 50.2856 50.7808Z" stroke="black" stroke-width="2" mask="url(#path-47-outside-1_814_451)"/>
<path d="M45.8945 51.5314C45.9236 51.6323 45.9643 51.7215 46.0169 51.7989C46.0694 51.8777 46.1337 51.944 46.2097 51.998C46.2844 52.0533 46.3701 52.0954 46.4668 52.1244C46.5622 52.1535 46.6679 52.168 46.7841 52.168C47.0011 52.168 47.1918 52.1141 47.3563 52.0063C47.5195 51.8984 47.6466 51.7415 47.7379 51.5356C47.8291 51.331 47.8747 51.0808 47.8747 50.785C47.8747 50.4892 47.8298 50.2376 47.7399 50.0302C47.6501 49.8229 47.5229 49.6646 47.3584 49.5554C47.1939 49.4476 46.9997 49.3937 46.7758 49.3937C46.5726 49.3937 46.3991 49.4296 46.2553 49.5015C46.1102 49.5748 45.9996 49.6777 45.9236 49.8104C45.8462 49.9431 45.8075 50.1 45.8075 50.2811L45.625 50.2542L46.7198 50.2542L46.7198 50.9301L44.9428 50.9301L44.9428 50.3952C44.9428 50.0219 45.0216 49.7012 45.1792 49.4331C45.3368 49.1663 45.5538 48.9603 45.8303 48.8152C46.1067 48.6714 46.4233 48.5995 46.7799 48.5995C47.178 48.5995 47.5278 48.6873 47.8291 48.8629C48.1304 49.0398 48.3654 49.2907 48.5341 49.6155C48.7013 49.9418 48.785 50.3288 48.785 50.7767C48.785 51.1209 48.7352 51.4278 48.6357 51.6973C48.5348 51.9682 48.3938 52.1977 48.2127 52.3857C48.0316 52.5737 47.8208 52.7168 47.5803 52.8149C47.3398 52.9131 47.0792 52.9621 46.7986 52.9621C46.5581 52.9621 46.3341 52.9269 46.1268 52.8564C45.9194 52.7873 45.7356 52.6891 45.5752 52.5619C45.4135 52.4348 45.2815 52.2834 45.1792 52.1079C45.0769 51.9337 45.0112 51.7415 44.9822 51.5314L45.8945 51.5314Z" stroke="black" stroke-width="2" mask="url(#path-47-outside-1_814_451)"/>
<path d="M42.0192 52.9041L42.0192 48.6576L42.917 48.6576L42.917 52.9041L42.0192 52.9041Z" stroke="black" stroke-width="2" mask="url(#path-47-outside-1_814_451)"/>
<path d="M37.7287 52.9041L37.7287 48.6576L38.5042 48.6576L40.3516 51.3303L40.3827 51.3303L40.3827 48.6576L41.2805 48.6576L41.2805 52.9041L40.4926 52.9041L38.6597 50.2334L38.6223 50.2334L38.6223 52.9041L37.7287 52.9041Z" stroke="black" stroke-width="2" mask="url(#path-47-outside-1_814_451)"/>
<path d="M364.646 31.4584H365.146V30.9584V26.045H394.113V30.9584V85.4796V87.8797H365.146V85.4796V84.9796H364.646H315.071V31.4584L364.646 31.4584Z" fill="#010F0F" stroke="black"/>
<path d="M358.926 162.428V156.934H363.92V162.428V162.928H364.42H411.873V223.268L364.42 223.268H363.92V223.768V229.262H358.926V223.768V223.268H358.426L330.155 223.268V162.928H358.426H358.926V162.428Z" fill="#B3B3B3" stroke="black"/>
<path d="M399.249 162.822H411.873V223.373H399.249V162.822Z" fill="#999999" stroke="black"/>
<path d="M319.587 95.3822H335.257V124.063H319.587V95.3822Z" fill="#333333" stroke="black"/>
<path d="M314.098 97.4149H318.587V100.684H314.098V97.4149Z" fill="#D9D9D9" stroke="black"/>
<path d="M314.098 118.761H318.587V122.03H314.098V118.761Z" fill="#D9D9D9" stroke="black"/>
<path d="M314.098 107.986H318.587V111.459H314.098V107.986Z" fill="#D9D9D9" stroke="black"/>
<path d="M336.257 102.904H340.543V116.745H336.257V102.904Z" fill="#D9D9D9" stroke="black"/>
<path d="M189.778 195.103L189.778 186.129L209.701 186.129L209.701 195.103L189.778 195.103Z" fill="#D9D9D9" stroke="black"/>
<path d="M189.778 209.458L189.778 200.483L209.701 200.483L209.701 209.458L189.778 209.458Z" fill="#D9D9D9" stroke="black"/>
<path d="M55.7266 209.457L55.7266 200.483L75.6493 200.483L75.6493 209.457L55.7266 209.457Z" fill="#D9D9D9" stroke="black"/>
<path d="M189.778 231.353L189.778 222.378L209.701 222.378L209.701 231.353L189.778 231.353Z" fill="#D9D9D9" stroke="black"/>
<rect x="6.58252" y="134.065" width="25.0318" height="9.70467" fill="#5B5B5C" stroke="black"/>
<path d="M10.2314 136.254H15.5569V141.58H10.2314V136.254Z" fill="#878368" stroke="black"/>
<path d="M22.6392 136.255H27.9646V141.58H22.6392V136.255Z" fill="#878368" stroke="black"/>
<rect x="268.577" y="225.541" width="25.0318" height="9.70467" transform="rotate(90 268.577 225.541)" fill="#5B5B5C" stroke="black"/>
<path d="M266.387 229.19L266.387 234.516L261.062 234.516L261.062 229.19L266.387 229.19Z" fill="#878368" stroke="black"/>
<path d="M266.387 241.598L266.387 246.923L261.062 246.923L261.062 241.598L266.387 241.598Z" fill="#878368" stroke="black"/>
<rect x="6.58252" y="147.202" width="25.0318" height="9.70467" fill="#5B5B5C" stroke="black"/>
<path d="M10.2314 149.392H15.5569V154.717H10.2314V149.392Z" fill="#878368" stroke="black"/>
<path d="M22.6392 149.392H27.9646V154.718H22.6392V149.392Z" fill="#878368" stroke="black"/>
<rect x="255.439" y="225.541" width="25.0318" height="9.70467" transform="rotate(90 255.439 225.541)" fill="#5B5B5C" stroke="black"/>
<path d="M253.249 229.191L253.249 234.516L247.924 234.516L247.924 229.191L253.249 229.191Z" fill="#878368" stroke="black"/>
<path d="M253.249 241.598L253.249 246.924L247.924 246.924L247.924 241.598L253.249 241.598Z" fill="#878368" stroke="black"/>
<rect x="6.58252" y="160.34" width="25.0318" height="9.70467" fill="#5B5B5C" stroke="black"/>
<path d="M10.2314 162.53H15.5569V167.856H10.2314V162.53Z" fill="#878368" stroke="black"/>
<path d="M22.6392 162.53H27.9646V167.856H22.6392V162.53Z" fill="#878368" stroke="black"/>
<rect x="242.301" y="225.541" width="25.0318" height="9.70467" transform="rotate(90 242.301 225.541)" fill="#5B5B5C" stroke="black"/>
<path d="M240.112 229.191L240.112 234.516L234.786 234.516L234.786 229.191L240.112 229.191Z" fill="#878368" stroke="black"/>
<path d="M240.112 241.598L240.112 246.924L234.786 246.924L234.786 241.598L240.112 241.598Z" fill="#878368" stroke="black"/>
<path d="M220.468 206.652L220.468 206.152L219.968 206.152L219.168 206.152L219.168 203.145L219.168 202.645L218.668 202.645L217.781 202.645L217.281 202.645L217.281 203.145L217.281 206.152L216.481 206.152L215.981 206.152L215.981 206.271L215.367 205.271L216.531 203.411L217.01 202.645L216.107 202.645L215.079 202.645L214.796 202.645L214.65 202.888L214.192 203.651L213.733 202.888L213.587 202.645L213.304 202.645L212.272 202.645L211.37 202.645L211.847 203.41L213.009 205.271L211.874 207.131L211.41 207.892L212.301 207.892L213.314 207.892L213.599 207.892L213.744 207.647L214.191 206.897L214.634 207.646L214.779 207.892L215.064 207.892L215.981 207.892L216.083 207.892L216.481 207.892L216.976 207.892L219.968 207.892L220.468 207.892L220.468 207.392L220.468 206.652Z" fill="white" stroke="black"/>
<path d="M49.9815 202.908L49.9821 202.907C50.3637 202.691 50.7872 202.587 51.2405 202.587C51.6967 202.587 52.1222 202.692 52.5046 202.91C52.8916 203.131 53.193 203.451 53.4084 203.853C53.6302 204.266 53.729 204.745 53.729 205.269C53.729 205.793 53.6303 206.273 53.4084 206.687M49.9815 202.908L53.4084 206.687M49.9815 202.908C49.6003 203.125 49.3019 203.436 49.087 203.828L49.087 203.145L49.087 202.645L48.587 202.645L47.6892 202.645L47.1892 202.645L47.1892 203.145L47.1892 204.26L46.2219 202.861L46.0728 202.645L45.8106 202.645L45.0351 202.645L44.5351 202.645L44.5351 203.145L44.5351 207.392L44.5351 207.892L45.0351 207.892L45.9288 207.892L46.4288 207.892L46.4288 207.392L46.4288 206.279L47.3868 207.675L47.5358 207.892L47.7991 207.892L48.587 207.892L49.087 207.892L49.087 207.392L49.087 206.709C49.3018 207.101 49.6003 207.412 49.9818 207.628C50.3633 207.845 50.7869 207.95 51.2405 207.95C51.6967 207.95 52.1222 207.845 52.5046 207.627L52.2565 207.193M49.9815 202.908L52.2565 207.193M53.4084 206.687C53.1928 207.089 52.891 207.408 52.5031 207.628L52.2565 207.193M53.4084 206.687L50.2287 207.193C50.5286 207.364 50.8659 207.45 51.2405 207.45C51.6179 207.45 51.9566 207.364 52.2565 207.193M50.7554 205.828C50.7006 205.702 50.6623 205.522 50.6623 205.269C50.6623 205.016 50.7006 204.835 50.7554 204.71L50.7554 204.71L50.7565 204.707C50.8126 204.577 50.8796 204.503 50.9473 204.459L50.6724 204.041L50.9473 204.459C51.0178 204.412 51.109 204.381 51.2405 204.381C51.3721 204.381 51.4633 204.412 51.5338 204.459C51.602 204.504 51.6698 204.577 51.7272 204.708C51.7812 204.835 51.8187 205.016 51.8187 205.269C51.8187 205.522 51.7812 205.703 51.7272 205.829C51.6698 205.96 51.602 206.034 51.5338 206.078C51.4633 206.125 51.3721 206.156 51.2405 206.156C51.109 206.156 51.0178 206.125 50.9473 206.078L50.6807 206.484L50.9473 206.078C50.8796 206.034 50.8126 205.961 50.7565 205.83L50.7565 205.83L50.7554 205.828Z" fill="white" stroke="black"/>
<path d="M220.307 188.791L220.307 188.291L219.807 188.291L218.909 188.291L218.409 188.291L218.409 188.791L218.409 189.527L217.89 188.556L217.749 188.291L217.449 188.291L217.079 188.291L216.458 188.291L216.176 188.291L215.615 188.291L215.148 188.291L214.865 188.291L214.719 188.534L214.26 189.298L213.801 188.534L213.656 188.291L213.373 188.291L212.34 188.291L211.439 188.291L211.916 189.056L213.077 190.918L211.942 192.777L211.478 193.538L212.369 193.538L213.383 193.538L213.667 193.538L213.813 193.293L214.259 192.543L214.703 193.293L214.848 193.538L215.133 193.538L216.151 193.538L217.045 193.538L216.797 193.134C216.886 193.202 216.983 193.261 217.086 193.313C217.398 193.47 217.753 193.538 218.131 193.538L219.807 193.538L220.307 193.538L220.307 193.038L220.307 188.791ZM216.297 189.54L216.696 190.27C216.566 190.382 216.455 190.514 216.364 190.665L216.363 190.666C216.187 190.961 216.109 191.296 216.109 191.651C216.109 191.798 216.123 191.943 216.151 192.082L215.435 190.917L216.297 189.54ZM218.299 191.518L218.409 191.518L218.409 191.804L218.303 191.804C218.176 191.804 218.109 191.784 218.08 191.771L218.08 191.771L218.073 191.768C218.061 191.763 218.054 191.759 218.052 191.757L218.051 191.755C218.049 191.752 218.034 191.726 218.034 191.651C218.034 191.614 218.038 191.591 218.041 191.576C218.043 191.569 218.045 191.565 218.046 191.562L218.047 191.559L218.047 191.559C218.05 191.557 218.055 191.554 218.064 191.551C218.097 191.537 218.169 191.518 218.299 191.518Z" fill="white" stroke="black"/>
<path d="M215.684 225.041L215.684 224.541L215.184 224.541L212.466 224.541L211.966 224.541L211.966 225.041L211.966 225.782L211.966 226.282L212.466 226.282L213.786 226.282L213.786 229.288L213.786 229.788L214.286 229.788L215.184 229.788L215.684 229.788L215.684 229.288L215.684 225.041Z" fill="white" stroke="black"/>
<path d="M227.731 177.614H259.575V209.458H227.731V177.614Z" fill="#333333" stroke="black"/>
</svg>
