<svg width="595" height="842" viewBox="0 0 595 842" fill="none" xmlns="http://www.w3.org/2000/svg">
<g clip-path="url(#clip0_724_205)">
<rect width="595" height="842" fill="#CBCDBF"/>
<circle cx="464" cy="420" r="32" fill="#FBED00"/>
<circle cx="210" cy="165" r="135" fill="#FBED00"/>
<path d="M549.162 22.1951C580.393 96.368 586.447 178.734 566.398 256.676C546.349 334.618 501.302 403.839 438.157 453.736C375.012 503.633 297.251 531.454 216.785 532.937C136.319 534.421 57.5848 509.486 -7.35687 461.951L-1.79002 454.346C61.4884 500.663 138.206 524.96 216.611 523.514C295.016 522.068 370.785 494.96 432.313 446.341C493.841 397.722 537.734 330.274 557.27 254.328C576.806 178.382 570.906 98.1258 540.475 25.8526L549.162 22.1951Z" fill="white"/>
<rect x="451.625" y="432.875" width="35.7089" height="248.548" transform="rotate(-45 451.625 432.875)" fill="#010F0F"/>
<path d="M542.041 9.42583L571.215 39.7258L534.772 50.8555L542.041 9.42583Z" fill="white"/>
<path d="M141.872 623.664V629.296C146.864 629.424 150.832 630.299 153.776 631.92C156.763 633.499 158.896 635.547 160.176 638.064C161.499 640.581 162.16 643.333 162.16 646.32C162.16 648.24 161.819 650.203 161.136 652.208C160.496 654.213 159.387 656.069 157.808 657.776C156.272 659.44 154.203 660.805 151.6 661.872C148.997 662.939 145.755 663.515 141.872 663.6V670.64H133.168V663.6C129.243 663.515 125.957 662.939 123.312 661.872C120.709 660.805 118.64 659.419 117.104 657.712C115.568 656.005 114.48 654.171 113.84 652.208C113.2 650.203 112.88 648.24 112.88 646.32C112.88 644.101 113.243 641.989 113.968 639.984C114.693 637.979 115.845 636.187 117.424 634.608C119.003 633.029 121.093 631.771 123.696 630.832C126.299 629.893 129.456 629.381 133.168 629.296V623.664H141.872ZM133.168 636.848C130.395 636.976 128.176 637.467 126.512 638.32C124.891 639.131 123.717 640.219 122.992 641.584C122.309 642.949 121.968 644.507 121.968 646.256C121.968 648.176 122.352 649.861 123.12 651.312C123.931 652.72 125.147 653.851 126.768 654.704C128.432 655.515 130.565 655.984 133.168 656.112V636.848ZM141.872 656.112C144.475 655.984 146.587 655.515 148.208 654.704C149.872 653.851 151.088 652.72 151.856 651.312C152.667 649.861 153.072 648.176 153.072 646.256C153.072 644.507 152.709 642.949 151.984 641.584C151.301 640.219 150.128 639.131 148.464 638.32C146.843 637.467 144.645 636.976 141.872 636.848V656.112ZM179.271 648.88C179.271 649.605 179.228 650.501 179.143 651.568C179.1 652.635 179.036 653.723 178.951 654.832C178.908 655.941 178.844 656.923 178.759 657.776C178.673 658.629 178.609 659.227 178.567 659.568L194.695 635.056H206.151V670H196.935V656.048C196.935 654.896 196.977 653.637 197.062 652.272C197.148 650.864 197.233 649.563 197.319 648.368C197.447 647.131 197.532 646.192 197.575 645.552L181.51 670H170.055V635.056H179.271V648.88ZM228.853 634.416C231.37 634.416 233.717 634.757 235.893 635.44C238.112 636.08 239.882 637.083 241.205 638.448C242.57 639.813 243.253 641.563 243.253 643.696C243.253 645.787 242.613 647.451 241.333 648.688C240.096 649.925 238.41 650.821 236.277 651.376V651.696C237.77 652.037 239.114 652.528 240.309 653.168C241.504 653.765 242.442 654.597 243.125 655.664C243.85 656.688 244.213 658.075 244.213 659.824C244.213 661.744 243.594 663.536 242.357 665.2C241.162 666.821 239.285 668.144 236.725 669.168C234.208 670.149 230.965 670.64 226.997 670.64C225.12 670.64 223.349 670.555 221.685 670.384C220.021 670.213 218.506 669.979 217.141 669.68C215.776 669.339 214.581 668.933 213.557 668.464V660.592C215.008 661.275 216.778 661.893 218.869 662.448C221.002 663.003 223.264 663.28 225.653 663.28C227.402 663.28 228.96 663.152 230.325 662.896C231.733 662.64 232.842 662.213 233.653 661.616C234.506 661.019 234.933 660.229 234.933 659.248C234.933 658.309 234.57 657.541 233.845 656.944C233.12 656.304 232.032 655.835 230.581 655.536C229.13 655.237 227.274 655.088 225.013 655.088H221.301V648.496H224.821C227.978 648.496 230.41 648.24 232.117 647.728C233.866 647.216 234.741 646.256 234.741 644.848C234.741 643.739 234.186 642.907 233.077 642.352C231.968 641.755 230.154 641.456 227.637 641.456C225.973 641.456 224.16 641.648 222.197 642.032C220.234 642.416 218.378 642.971 216.629 643.696L213.813 637.04C215.818 636.272 218.016 635.653 220.405 635.184C222.794 634.672 225.61 634.416 228.853 634.416ZM260.833 648.88C260.833 649.605 260.79 650.501 260.705 651.568C260.662 652.635 260.598 653.723 260.513 654.832C260.47 655.941 260.406 656.923 260.321 657.776C260.236 658.629 260.172 659.227 260.129 659.568L276.257 635.056H287.713V670H278.497V656.048C278.497 654.896 278.54 653.637 278.625 652.272C278.71 650.864 278.796 649.563 278.881 648.368C279.009 647.131 279.094 646.192 279.137 645.552L263.073 670H251.617V635.056H260.833V648.88ZM320.592 635.056H331.088L317.264 651.824L332.304 670H321.488L307.216 652.272V670H297.68V635.056H307.216V652.016L320.592 635.056ZM351.641 634.352C356.334 634.352 359.918 635.376 362.393 637.424C364.91 639.429 366.169 642.523 366.169 646.704V670H359.513L357.657 665.264H357.401C356.419 666.501 355.395 667.525 354.329 668.336C353.305 669.147 352.11 669.723 350.745 670.064C349.422 670.448 347.779 670.64 345.817 670.64C343.769 670.64 341.913 670.256 340.249 669.488C338.627 668.677 337.347 667.461 336.409 665.84C335.47 664.176 335.001 662.085 335.001 659.568C335.001 655.856 336.302 653.125 338.905 651.376C341.507 649.584 345.411 648.603 350.617 648.432L356.697 648.24V646.704C356.697 644.869 356.206 643.525 355.225 642.672C354.286 641.819 352.963 641.392 351.257 641.392C349.55 641.392 347.886 641.648 346.265 642.16C344.643 642.629 343.022 643.227 341.401 643.952L338.265 637.488C340.142 636.507 342.211 635.739 344.473 635.184C346.777 634.629 349.166 634.352 351.641 634.352ZM352.985 653.936C349.913 654.021 347.779 654.576 346.585 655.6C345.39 656.624 344.793 657.968 344.793 659.632C344.793 661.083 345.219 662.128 346.073 662.768C346.926 663.365 348.035 663.664 349.401 663.664C351.449 663.664 353.177 663.067 354.585 661.872C355.993 660.635 356.697 658.907 356.697 656.688V653.808L352.985 653.936Z" fill="#010F0F"/>
<path d="M453.829 574.708L405.173 742H354.311L392.182 622.75H340.952V574.708H453.829Z" fill="#FA0012"/>
<rect width="50" height="842" fill="#010F0F"/>
<line x1="110.768" y1="66.2322" x2="463.768" y2="419.232" stroke="white" stroke-width="5"/>
<circle cx="464" cy="420" r="18" fill="#FA0012"/>
<circle cx="115" cy="70" r="11" fill="white"/>
<circle cx="492.5" cy="434.5" r="7.5" fill="white"/>
<circle cx="290.713" cy="522.713" r="32" transform="rotate(30 290.713 522.713)" fill="#FBED00"/>
<rect x="273.558" y="527.675" width="35.7089" height="56.1608" transform="rotate(-15 273.558 527.675)" fill="#010F0F"/>
<line x1="229.668" y1="296.285" x2="291.199" y2="525.922" stroke="white" stroke-width="5"/>
<circle cx="290.712" cy="522.713" r="18" transform="rotate(30 290.712 522.713)" fill="#FA0012"/>
<circle cx="230.026" cy="297.026" r="11" transform="rotate(30 230.026 297.026)" fill="white"/>
<circle cx="308.145" cy="549.52" r="7.5" transform="rotate(30 308.145 549.52)" fill="white"/>
<circle cx="210" cy="165" r="31" fill="#FA0012"/>
</g>
<defs>
<clipPath id="clip0_724_205">
<rect width="595" height="842" fill="white"/>
</clipPath>
</defs>
</svg>
