<svg width="595" height="842" viewBox="0 0 595 842" fill="none" xmlns="http://www.w3.org/2000/svg">
<g clip-path="url(#clip0_724_144)">
<rect width="595" height="842" fill="#CBCDBF"/>
<rect width="50" height="842" fill="#010F0F"/>
<circle cx="343" cy="272" r="213.5" fill="#FC8D00" stroke="white" stroke-width="5"/>
<mask id="path-3-inside-1_724_144" fill="white">
<path d="M414 272C414 281.455 412.138 290.818 408.519 299.553C404.901 308.289 399.598 316.226 392.912 322.912C386.226 329.598 378.289 334.901 369.553 338.519C360.818 342.138 351.455 344 342 344C332.545 344 323.182 342.138 314.447 338.519C305.711 334.901 297.774 329.598 291.088 322.912C284.402 316.226 279.099 308.289 275.481 299.553C271.862 290.818 270 281.455 270 272H272.541C272.541 281.121 274.338 290.154 277.828 298.581C281.319 307.008 286.435 314.665 292.885 321.115C299.335 327.565 306.992 332.681 315.419 336.172C323.846 339.662 332.879 341.459 342 341.459C351.121 341.459 360.154 339.662 368.581 336.172C377.008 332.681 384.665 327.565 391.115 321.115C397.565 314.665 402.681 307.008 406.172 298.581C409.662 290.154 411.459 281.121 411.459 272H414Z"/>
</mask>
<path d="M414 272C414 281.455 412.138 290.818 408.519 299.553C404.901 308.289 399.598 316.226 392.912 322.912C386.226 329.598 378.289 334.901 369.553 338.519C360.818 342.138 351.455 344 342 344C332.545 344 323.182 342.138 314.447 338.519C305.711 334.901 297.774 329.598 291.088 322.912C284.402 316.226 279.099 308.289 275.481 299.553C271.862 290.818 270 281.455 270 272H272.541C272.541 281.121 274.338 290.154 277.828 298.581C281.319 307.008 286.435 314.665 292.885 321.115C299.335 327.565 306.992 332.681 315.419 336.172C323.846 339.662 332.879 341.459 342 341.459C351.121 341.459 360.154 339.662 368.581 336.172C377.008 332.681 384.665 327.565 391.115 321.115C397.565 314.665 402.681 307.008 406.172 298.581C409.662 290.154 411.459 281.121 411.459 272H414Z" stroke="white" stroke-width="10" mask="url(#path-3-inside-1_724_144)"/>
<path d="M272 264L278.062 276H265.938L272 264Z" fill="white"/>
<rect x="442.581" y="86.2949" width="78.1432" height="137.162" transform="rotate(30 442.581 86.2949)" fill="#7AC7F1"/>
<path d="M373.902 205.48L398.902 191.047L373.902 176.613L373.902 205.48ZM442.064 82.4191L382.987 184.745L387.317 187.245L446.395 84.9191L442.064 82.4191Z" fill="white"/>
<path d="M444.856 84.0266L341.209 263.548" stroke="white" stroke-width="3"/>
<path d="M442.065 244.575L456.499 219.575H427.632L442.065 244.575ZM439.565 86.5747L439.565 222.075H444.565L444.565 86.5747H439.565Z" fill="white"/>
<path d="M510.674 124.556L496.24 99.5559L481.807 124.556L510.674 124.556ZM440.207 86.7585L489.939 115.471L492.439 111.141L442.707 82.4284L440.207 86.7585Z" fill="white"/>
<mask id="path-10-inside-2_724_144" fill="white">
<path d="M476.125 105.579C475.349 109.171 473.826 112.56 471.653 115.524C469.481 118.488 466.708 120.961 463.517 122.783C460.325 124.605 456.785 125.734 453.128 126.097C449.471 126.46 445.779 126.048 442.291 124.889L443.081 122.512C446.235 123.56 449.574 123.932 452.881 123.604C456.188 123.276 459.389 122.255 462.275 120.608C465.161 118.96 467.668 116.724 469.633 114.043C471.597 111.363 472.975 108.299 473.677 105.05L476.125 105.579Z"/>
</mask>
<path d="M476.125 105.579C475.349 109.171 473.826 112.56 471.653 115.524C469.481 118.488 466.708 120.961 463.517 122.783C460.325 124.605 456.785 125.734 453.128 126.097C449.471 126.46 445.779 126.048 442.291 124.889L443.081 122.512C446.235 123.56 449.574 123.932 452.881 123.604C456.188 123.276 459.389 122.255 462.275 120.608C465.161 118.96 467.668 116.724 469.633 114.043C471.597 111.363 472.975 108.299 473.677 105.05L476.125 105.579Z" stroke="white" stroke-width="10" mask="url(#path-10-inside-2_724_144)"/>
<path d="M442 87L442 507" stroke="white" stroke-width="3"/>
<path d="M444.229 83.6689L341 264" stroke="white" stroke-width="3"/>
<circle cx="341" cy="263" r="4" fill="white"/>
<line x1="341" y1="263.5" x2="442" y2="263.5" stroke="white" stroke-width="3" stroke-dasharray="6 6"/>
<rect x="424" y="507" width="36" height="36" fill="white"/>
<path d="M141.872 623.664V629.296C146.864 629.424 150.832 630.299 153.776 631.92C156.763 633.499 158.896 635.547 160.176 638.064C161.499 640.581 162.16 643.333 162.16 646.32C162.16 648.24 161.819 650.203 161.136 652.208C160.496 654.213 159.387 656.069 157.808 657.776C156.272 659.44 154.203 660.805 151.6 661.872C148.997 662.939 145.755 663.515 141.872 663.6V670.64H133.168V663.6C129.243 663.515 125.957 662.939 123.312 661.872C120.709 660.805 118.64 659.419 117.104 657.712C115.568 656.005 114.48 654.171 113.84 652.208C113.2 650.203 112.88 648.24 112.88 646.32C112.88 644.101 113.243 641.989 113.968 639.984C114.693 637.979 115.845 636.187 117.424 634.608C119.003 633.029 121.093 631.771 123.696 630.832C126.299 629.893 129.456 629.381 133.168 629.296V623.664H141.872ZM133.168 636.848C130.395 636.976 128.176 637.467 126.512 638.32C124.891 639.131 123.717 640.219 122.992 641.584C122.309 642.949 121.968 644.507 121.968 646.256C121.968 648.176 122.352 649.861 123.12 651.312C123.931 652.72 125.147 653.851 126.768 654.704C128.432 655.515 130.565 655.984 133.168 656.112V636.848ZM141.872 656.112C144.475 655.984 146.587 655.515 148.208 654.704C149.872 653.851 151.088 652.72 151.856 651.312C152.667 649.861 153.072 648.176 153.072 646.256C153.072 644.507 152.709 642.949 151.984 641.584C151.301 640.219 150.128 639.131 148.464 638.32C146.843 637.467 144.645 636.976 141.872 636.848V656.112ZM179.271 648.88C179.271 649.605 179.228 650.501 179.143 651.568C179.1 652.635 179.036 653.723 178.951 654.832C178.908 655.941 178.844 656.923 178.759 657.776C178.673 658.629 178.609 659.227 178.567 659.568L194.695 635.056H206.151V670H196.935V656.048C196.935 654.896 196.977 653.637 197.062 652.272C197.148 650.864 197.233 649.563 197.319 648.368C197.447 647.131 197.532 646.192 197.575 645.552L181.51 670H170.055V635.056H179.271V648.88ZM228.853 634.416C231.37 634.416 233.717 634.757 235.893 635.44C238.112 636.08 239.882 637.083 241.205 638.448C242.57 639.813 243.253 641.563 243.253 643.696C243.253 645.787 242.613 647.451 241.333 648.688C240.096 649.925 238.41 650.821 236.277 651.376V651.696C237.77 652.037 239.114 652.528 240.309 653.168C241.504 653.765 242.442 654.597 243.125 655.664C243.85 656.688 244.213 658.075 244.213 659.824C244.213 661.744 243.594 663.536 242.357 665.2C241.162 666.821 239.285 668.144 236.725 669.168C234.208 670.149 230.965 670.64 226.997 670.64C225.12 670.64 223.349 670.555 221.685 670.384C220.021 670.213 218.506 669.979 217.141 669.68C215.776 669.339 214.581 668.933 213.557 668.464V660.592C215.008 661.275 216.778 661.893 218.869 662.448C221.002 663.003 223.264 663.28 225.653 663.28C227.402 663.28 228.96 663.152 230.325 662.896C231.733 662.64 232.842 662.213 233.653 661.616C234.506 661.019 234.933 660.229 234.933 659.248C234.933 658.309 234.57 657.541 233.845 656.944C233.12 656.304 232.032 655.835 230.581 655.536C229.13 655.237 227.274 655.088 225.013 655.088H221.301V648.496H224.821C227.978 648.496 230.41 648.24 232.117 647.728C233.866 647.216 234.741 646.256 234.741 644.848C234.741 643.739 234.186 642.907 233.077 642.352C231.968 641.755 230.154 641.456 227.637 641.456C225.973 641.456 224.16 641.648 222.197 642.032C220.234 642.416 218.378 642.971 216.629 643.696L213.813 637.04C215.818 636.272 218.016 635.653 220.405 635.184C222.794 634.672 225.61 634.416 228.853 634.416ZM260.833 648.88C260.833 649.605 260.79 650.501 260.705 651.568C260.662 652.635 260.598 653.723 260.513 654.832C260.47 655.941 260.406 656.923 260.321 657.776C260.236 658.629 260.172 659.227 260.129 659.568L276.257 635.056H287.713V670H278.497V656.048C278.497 654.896 278.54 653.637 278.625 652.272C278.71 650.864 278.796 649.563 278.881 648.368C279.009 647.131 279.094 646.192 279.137 645.552L263.073 670H251.617V635.056H260.833V648.88ZM320.592 635.056H331.088L317.264 651.824L332.304 670H321.488L307.216 652.272V670H297.68V635.056H307.216V652.016L320.592 635.056ZM351.641 634.352C356.334 634.352 359.918 635.376 362.393 637.424C364.91 639.429 366.169 642.523 366.169 646.704V670H359.513L357.657 665.264H357.401C356.419 666.501 355.395 667.525 354.329 668.336C353.305 669.147 352.11 669.723 350.745 670.064C349.422 670.448 347.779 670.64 345.817 670.64C343.769 670.64 341.913 670.256 340.249 669.488C338.627 668.677 337.347 667.461 336.409 665.84C335.47 664.176 335.001 662.085 335.001 659.568C335.001 655.856 336.302 653.125 338.905 651.376C341.507 649.584 345.411 648.603 350.617 648.432L356.697 648.24V646.704C356.697 644.869 356.206 643.525 355.225 642.672C354.286 641.819 352.963 641.392 351.257 641.392C349.55 641.392 347.886 641.648 346.265 642.16C344.643 642.629 343.022 643.227 341.401 643.952L338.265 637.488C340.142 636.507 342.211 635.739 344.473 635.184C346.777 634.629 349.166 634.352 351.641 634.352ZM352.985 653.936C349.913 654.021 347.779 654.576 346.585 655.6C345.39 656.624 344.793 657.968 344.793 659.632C344.793 661.083 345.219 662.128 346.073 662.768C346.926 663.365 348.035 663.664 349.401 663.664C351.449 663.664 353.177 663.067 354.585 661.872C355.993 660.635 356.697 658.907 356.697 656.688V653.808L352.985 653.936Z" fill="#010F0F"/>
<path d="M453.829 574.708L405.173 742H354.311L392.182 622.75H340.952V574.708H453.829Z" fill="#FC8D00"/>
</g>
<defs>
<clipPath id="clip0_724_144">
<rect width="595" height="842" fill="white"/>
</clipPath>
</defs>
</svg>
