<svg width="232" height="328" viewBox="0 0 232 328" fill="none" xmlns="http://www.w3.org/2000/svg">
<g clip-path="url(#clip0_878_609)">
<path d="M231.835 0.247557L0.835205 0.247559L0.835207 327.248L231.835 327.248L231.835 0.247557Z" fill="#CBCDBF"/>
<path d="M20.247 0.247558L0.835205 0.247559L0.835207 327.248L20.247 327.248L20.247 0.247558Z" fill="#010F0F"/>
<path d="M134 188.797C179.778 188.797 216.888 151.675 216.888 105.882C216.888 60.0891 179.778 22.9668 134 22.9668C88.2219 22.9668 51.1116 60.0891 51.1116 105.882C51.1116 151.675 88.2219 188.797 134 188.797Z" fill="#FC8D00" stroke="white" stroke-width="5"/>
<mask id="mask0_878_609" style="mask-type:alpha" maskUnits="userSpaceOnUse" x="100" y="100" width="67" height="39">
<path d="M161.565 105.882C161.565 109.554 160.842 113.19 159.437 116.582C158.032 119.975 155.973 123.057 153.377 125.654C150.782 128.251 147.7 130.31 144.309 131.715C140.917 133.121 137.282 133.844 133.612 133.844C129.941 133.844 126.306 133.121 122.915 131.715C119.523 130.31 116.442 128.251 113.846 125.654C111.25 123.057 109.191 119.975 107.787 116.582C106.382 113.19 105.659 109.554 105.659 105.882L106.645 105.882C106.645 109.424 107.343 112.932 108.698 116.205C110.053 119.478 112.039 122.451 114.543 124.956C117.048 127.461 120.02 129.448 123.292 130.804C126.564 132.159 130.071 132.857 133.612 132.857C137.153 132.857 140.66 132.159 143.931 130.804C147.203 129.448 150.176 127.461 152.68 124.956C155.184 122.451 157.17 119.478 158.525 116.205C159.88 112.932 160.578 109.424 160.578 105.882L161.565 105.882Z" stroke="white" stroke-width="10"/>
</mask>
<g mask="url(#mask0_878_609)">
<path d="M161.565 105.882C161.565 109.554 160.842 113.19 159.437 116.582C158.032 119.975 155.973 123.057 153.377 125.654C150.782 128.251 147.7 130.31 144.309 131.715C140.917 133.121 137.282 133.844 133.612 133.844C129.941 133.844 126.306 133.121 122.915 131.715C119.523 130.31 116.442 128.251 113.846 125.654C111.25 123.057 109.191 119.975 107.787 116.582C106.382 113.19 105.659 109.554 105.659 105.882L106.645 105.882C106.645 109.424 107.343 112.932 108.698 116.205C110.053 119.478 112.039 122.451 114.543 124.956C117.048 127.461 120.02 129.448 123.292 130.804C126.564 132.159 130.071 132.857 133.612 132.857C137.153 132.857 140.66 132.159 143.931 130.804C147.203 129.448 150.176 127.461 152.68 124.956C155.184 122.451 157.17 119.478 158.525 116.205C159.88 112.932 160.578 109.424 160.578 105.882L161.565 105.882Z" stroke="white" stroke-width="10"/>
</g>
<path d="M106.435 102.775L108.789 107.435L104.082 107.435L106.435 102.775Z" fill="white"/>
<path d="M198.934 48.9351L172.661 33.7612L146.035 79.893L172.309 95.0669L198.934 48.9351Z" fill="#7AC7F1"/>
<path d="M145.997 80.048L155.703 74.4427L145.997 68.8371L145.997 80.048ZM172.46 32.2559L149.524 71.9953L151.205 72.9662L174.141 33.2268L172.46 32.2559Z" fill="white"/>
<path d="M173.544 32.8804L133.305 102.599" stroke="white" stroke-width="3"/>
<path d="M172.46 95.2308L178.064 85.5218L166.857 85.5218L172.46 95.2308ZM171.49 33.8696L171.49 86.4927L173.431 86.4927L173.431 33.8696L171.49 33.8696Z" fill="white"/>
<path d="M199.097 48.6205L193.493 38.9115L187.89 48.6205L199.097 48.6205ZM171.739 33.9414L191.047 45.0922L192.017 43.4106L172.71 32.2598L171.739 33.9414Z" fill="white"/>
<mask id="mask1_878_609" style="mask-type:alpha" maskUnits="userSpaceOnUse" x="166" y="35" width="26" height="20">
<path d="M185.684 41.2504C185.382 42.6454 184.791 43.9615 183.947 45.1126C183.104 46.2637 182.028 47.2241 180.789 47.9317C179.55 48.6393 178.175 49.0778 176.755 49.2188C175.336 49.3597 173.902 49.1997 172.548 48.7496L172.855 47.8265C174.079 48.2335 175.376 48.378 176.66 48.2506C177.943 48.1232 179.186 47.7267 180.307 47.087C181.427 46.447 182.4 45.5786 183.163 44.5375C183.926 43.4966 184.461 42.3067 184.733 41.0449L185.684 41.2504Z" stroke="white" stroke-width="10"/>
</mask>
<g mask="url(#mask1_878_609)">
<path d="M185.684 41.2504C185.382 42.6454 184.791 43.9615 183.947 45.1126C183.104 46.2637 182.028 47.2241 180.789 47.9317C179.55 48.6393 178.175 49.0778 176.755 49.2188C175.336 49.3597 173.902 49.1997 172.548 48.7496L172.855 47.8265C174.079 48.2335 175.376 48.378 176.66 48.2506C177.943 48.1232 179.186 47.7267 180.307 47.087C181.427 46.447 182.4 45.5786 183.163 44.5375C183.926 43.4966 184.461 42.3067 184.733 41.0449L185.684 41.2504Z" stroke="white" stroke-width="10"/>
</g>
<path d="M172.435 34.0352L172.435 197.147" stroke="white" stroke-width="3"/>
<path d="M173.301 32.7412L133.223 102.775" stroke="white" stroke-width="3"/>
<path d="M133.223 103.94C134.081 103.94 134.776 103.244 134.776 102.386C134.776 101.529 134.081 100.833 133.223 100.833C132.366 100.833 131.67 101.529 131.67 102.386C131.67 103.244 132.366 103.94 133.223 103.94Z" fill="white"/>
<path d="M133.223 102.581L172.435 102.581" stroke="white" stroke-width="3" stroke-dasharray="6 6"/>
<path d="M179.423 197.146L165.447 197.146L165.447 211.127L179.423 211.127L179.423 197.146Z" fill="white"/>
<path d="M55.9149 242.454L55.9149 244.641C57.853 244.691 59.3935 245.031 60.5365 245.66C61.6961 246.274 62.5242 247.069 63.0212 248.047C63.5348 249.024 63.7914 250.093 63.7914 251.253C63.7914 251.998 63.659 252.761 63.3939 253.539C63.1454 254.318 62.7148 255.039 62.1018 255.702C61.5055 256.348 60.7022 256.878 59.6917 257.293C58.6811 257.707 57.4224 257.931 55.9149 257.964L55.9149 260.698L52.5357 260.698L52.5357 257.964C51.0119 257.931 49.7361 257.707 48.7093 257.293C47.6987 256.878 46.8954 256.34 46.2991 255.677C45.7028 255.014 45.2804 254.302 45.0319 253.539C44.7834 252.761 44.6592 251.998 44.6592 251.253C44.6592 250.391 44.8001 249.571 45.0816 248.792C45.3631 248.013 45.8103 247.318 46.4233 246.704C47.0363 246.091 47.8478 245.603 48.8583 245.238C49.8689 244.873 51.0946 244.674 52.5357 244.641L52.5357 242.454L55.9149 242.454ZM52.5357 247.574C51.4591 247.624 50.5976 247.815 49.9516 248.146C49.3223 248.461 48.8665 248.883 48.585 249.414C48.3199 249.944 48.1875 250.549 48.1875 251.228C48.1875 251.974 48.3365 252.628 48.6347 253.192C48.9496 253.738 49.4217 254.178 50.051 254.509C50.697 254.824 51.5251 255.006 52.5357 255.056L52.5357 247.574ZM55.9149 255.056C56.9255 255.006 57.7454 254.824 58.3748 254.509C59.0208 254.178 59.4929 253.738 59.791 253.192C60.1059 252.628 60.2631 251.974 60.2631 251.228C60.2631 250.549 60.1222 249.944 59.8407 249.414C59.5756 248.883 59.1202 248.461 58.4741 248.146C57.8448 247.815 56.9915 247.624 55.9149 247.574L55.9149 255.056ZM70.4345 252.247C70.4345 252.529 70.4178 252.877 70.3848 253.291C70.3681 253.705 70.3433 254.128 70.3103 254.559C70.2936 254.989 70.2687 255.371 70.2357 255.702C70.2023 256.033 70.1775 256.265 70.1612 256.398L76.4227 246.878L80.8703 246.878L80.8703 260.449L77.2923 260.449L77.2923 255.031C77.2923 254.583 77.3086 254.094 77.3416 253.564C77.375 253.018 77.408 252.512 77.4414 252.048C77.4911 251.568 77.5241 251.203 77.5408 250.955L71.3038 260.449L66.8565 260.449L66.8565 246.878L70.4345 246.878L70.4345 252.247ZM89.684 246.63C90.6612 246.63 91.5724 246.762 92.4172 247.027C93.2787 247.276 93.9658 247.666 94.4795 248.196C95.0094 248.726 95.2746 249.405 95.2746 250.234C95.2746 251.046 95.0261 251.692 94.5292 252.172C94.0489 252.653 93.3944 253.001 92.5663 253.216L92.5663 253.341C93.1459 253.473 93.6677 253.664 94.1316 253.912C94.5956 254.144 94.9597 254.467 95.2249 254.882C95.5064 255.279 95.6473 255.818 95.6473 256.497C95.6473 257.243 95.407 257.939 94.9267 258.585C94.4628 259.215 93.7341 259.728 92.7402 260.126C91.763 260.507 90.5039 260.698 88.9634 260.698C88.2347 260.698 87.5471 260.665 86.9011 260.598C86.2551 260.532 85.6669 260.441 85.137 260.325C84.607 260.192 84.1431 260.035 83.7456 259.853L83.7456 256.795C84.3089 257.061 84.9961 257.301 85.8079 257.516C86.636 257.732 87.5141 257.839 88.4416 257.839C89.1207 257.839 89.7255 257.79 90.2555 257.69C90.8021 257.591 91.2327 257.425 91.5475 257.193C91.8787 256.961 92.0445 256.655 92.0445 256.274C92.0445 255.909 91.9035 255.611 91.6221 255.379C91.3406 255.13 90.9182 254.948 90.3549 254.832C89.7915 254.716 89.071 254.658 88.1932 254.658L86.752 254.658L86.752 252.098L88.1186 252.098C89.3443 252.098 90.2885 251.998 90.9512 251.8C91.6302 251.601 91.9699 251.228 91.9699 250.681C91.9699 250.25 91.7545 249.927 91.3239 249.712C90.8933 249.48 90.1891 249.364 89.2119 249.364C88.5659 249.364 87.862 249.438 87.0999 249.588C86.3378 249.737 85.6172 249.952 84.9382 250.234L83.8449 247.649C84.6234 247.351 85.4767 247.11 86.4042 246.928C87.3317 246.729 88.4249 246.63 89.684 246.63ZM102.1 252.247C102.1 252.529 102.083 252.877 102.05 253.291C102.033 253.705 102.009 254.128 101.976 254.559C101.959 254.989 101.934 255.371 101.901 255.702C101.868 256.033 101.843 256.265 101.826 256.398L108.088 246.878L112.536 246.878L112.536 260.449L108.958 260.449L108.958 255.031C108.958 254.583 108.974 254.094 109.007 253.564C109.04 253.018 109.074 252.512 109.107 252.048C109.156 251.568 109.189 251.203 109.206 250.955L102.969 260.449L98.5218 260.449L98.5218 246.878L102.1 246.878L102.1 252.247ZM125.3 246.878L129.375 246.878L124.008 253.39L129.847 260.449L125.648 260.449L120.107 253.564L120.107 260.449L116.405 260.449L116.405 246.878L120.107 246.878L120.107 253.465L125.3 246.878ZM137.355 246.605C139.177 246.605 140.568 247.003 141.529 247.798C142.506 248.577 142.995 249.778 142.995 251.402L142.995 260.449L140.411 260.449L139.69 258.61L139.591 258.61C139.21 259.09 138.812 259.488 138.398 259.803C138.001 260.118 137.537 260.342 137.007 260.474C136.493 260.623 135.855 260.698 135.094 260.698C134.298 260.698 133.578 260.549 132.932 260.25C132.302 259.935 131.805 259.463 131.441 258.834C131.076 258.187 130.894 257.375 130.894 256.398C130.894 254.956 131.399 253.896 132.41 253.216C133.42 252.52 134.936 252.139 136.957 252.073L139.318 251.998L139.318 251.402C139.318 250.689 139.127 250.167 138.746 249.836C138.382 249.505 137.868 249.339 137.206 249.339C136.543 249.339 135.897 249.438 135.267 249.637C134.638 249.819 134.008 250.052 133.379 250.333L132.162 247.823C132.89 247.442 133.694 247.144 134.572 246.928C135.466 246.712 136.394 246.605 137.355 246.605ZM137.876 254.211C136.684 254.244 135.855 254.459 135.392 254.857C134.928 255.254 134.696 255.776 134.696 256.423C134.696 256.986 134.861 257.392 135.193 257.641C135.524 257.872 135.955 257.989 136.485 257.989C137.28 257.989 137.951 257.757 138.498 257.293C139.044 256.812 139.318 256.141 139.318 255.279L139.318 254.161L137.876 254.211Z" fill="#010F0F"/>
<path d="M177.028 223.442L158.138 288.412L138.391 288.412L153.094 242.1L133.205 242.1L133.205 223.442L177.028 223.442Z" fill="#FC8D00"/>
</g>
<defs>
<clipPath id="clip0_878_609">
<rect width="231" height="327" fill="white" transform="translate(0.835205 0.247559)"/>
</clipPath>
</defs>
</svg>
