<svg width="562" height="796" viewBox="0 0 562 796" fill="none" xmlns="http://www.w3.org/2000/svg">
<g clip-path="url(#clip0_823_1162)">
<path d="M561.352 0.583004L0.352295 0.583008L0.3523 795.583L561.352 795.583L561.352 0.583004Z" fill="#CBCDBF"/>
<path d="M492.588 -113.382L383.642 -176.371L-107.526 675.55L1.42091 738.539L492.588 -113.382Z" fill="#01E0B1" stroke="white" stroke-width="5"/>
<path d="M441.861 -139.985L432.01 -145.68L255.21 160.977L265.06 166.672L441.861 -139.985Z" fill="white"/>
<path d="M150.555 359.04L146.102 356.465L165.58 322.68L170.033 325.255L150.555 359.04Z" fill="white"/>
<path d="M133.033 351.354L128.581 348.78L148.059 314.995L152.512 317.569L133.033 351.354Z" fill="white"/>
<path d="M165.834 370.331L161.381 367.757L182.002 331.99L186.455 334.564L165.834 370.331Z" fill="white"/>
<path d="M166.85 368.461L129.807 347.044L-22.1056 610.533L14.9378 631.95L166.85 368.461Z" fill="white"/>
<path d="M188.611 340.803L142.845 314.344L161.589 281.834L207.354 308.294L188.611 340.803Z" fill="#010F0F"/>
<path d="M217.425 184.987L284.973 173.663L306.757 135.879L260.993 109.419L217.425 184.987Z" fill="#010F0F"/>
<path d="M134.117 589.434L134.117 594.752C138.824 594.873 142.565 595.699 145.341 597.229C148.157 598.72 150.168 600.654 151.375 603.03C152.623 605.407 153.246 608.005 153.246 610.825C153.246 612.638 152.924 614.492 152.281 616.385C151.677 618.278 150.631 620.03 149.143 621.642C147.694 623.213 145.744 624.502 143.289 625.509C140.835 626.517 137.778 627.061 134.117 627.141L134.117 633.788L125.911 633.788L125.911 627.141C122.21 627.061 119.112 626.517 116.618 625.509C114.164 624.502 112.213 623.193 110.765 621.582C109.316 619.97 108.291 618.238 107.687 616.385C107.084 614.492 106.782 612.638 106.782 610.825C106.782 608.73 107.124 606.736 107.808 604.843C108.491 602.95 109.578 601.258 111.066 599.767C112.555 598.276 114.526 597.089 116.98 596.202C119.434 595.315 122.411 594.832 125.911 594.752L125.911 589.434L134.117 589.434ZM125.911 601.882C123.296 602.003 121.204 602.467 119.635 603.272C118.107 604.038 117 605.065 116.316 606.354C115.672 607.643 115.351 609.114 115.351 610.765C115.351 612.578 115.713 614.169 116.437 615.539C117.202 616.868 118.348 617.936 119.876 618.741C121.445 619.507 123.456 619.95 125.911 620.071L125.911 601.882ZM134.117 620.071C136.572 619.95 138.563 619.507 140.091 618.741C141.66 617.936 142.807 616.868 143.531 615.539C144.295 614.169 144.677 612.578 144.677 610.765C144.677 609.114 144.335 607.643 143.651 606.354C143.007 605.065 141.902 604.038 140.333 603.272C138.804 602.467 136.732 602.003 134.117 601.882L134.117 620.071ZM169.379 613.243C169.379 613.927 169.339 614.773 169.259 615.78C169.218 616.788 169.158 617.815 169.078 618.862C169.037 619.909 168.977 620.837 168.896 621.642C168.815 622.447 168.755 623.012 168.715 623.334L183.922 600.19L194.723 600.19L194.723 633.184L186.034 633.184L186.034 620.01C186.034 618.923 186.073 617.734 186.154 616.445C186.235 615.116 186.315 613.887 186.396 612.759C186.517 611.591 186.597 610.705 186.637 610.1L171.49 633.184L160.69 633.184L160.69 600.19L169.379 600.19L169.379 613.243ZM216.128 599.586C218.501 599.586 220.714 599.908 222.766 600.553C224.858 601.157 226.527 602.104 227.774 603.393C229.061 604.682 229.705 606.334 229.705 608.348C229.705 610.322 229.102 611.893 227.895 613.061C226.729 614.229 225.139 615.075 223.128 615.599L223.128 615.901C224.535 616.223 225.803 616.687 226.929 617.291C228.056 617.855 228.94 618.64 229.584 619.648C230.268 620.615 230.61 621.924 230.61 623.576C230.61 625.388 230.027 627.08 228.86 628.652C227.734 630.182 225.964 631.431 223.55 632.398C221.177 633.324 218.119 633.788 214.378 633.788C212.608 633.788 210.938 633.708 209.37 633.546C207.801 633.385 206.372 633.164 205.085 632.881C203.798 632.56 202.672 632.176 201.706 631.733L201.706 624.301C203.074 624.946 204.743 625.529 206.714 626.053C208.726 626.577 210.858 626.839 213.111 626.839C214.76 626.839 216.229 626.718 217.516 626.476C218.843 626.234 219.889 625.831 220.654 625.268C221.458 624.704 221.861 623.958 221.861 623.032C221.861 622.145 221.518 621.42 220.835 620.856C220.151 620.252 219.125 619.809 217.757 619.527C216.389 619.245 214.639 619.104 212.507 619.104L209.007 619.104L209.007 612.88L212.326 612.88C215.303 612.88 217.596 612.638 219.205 612.155C220.855 611.671 221.679 610.765 221.679 609.436C221.679 608.389 221.156 607.603 220.111 607.079C219.065 606.515 217.355 606.233 214.981 606.233C213.413 606.233 211.703 606.414 209.852 606.777C208.001 607.139 206.252 607.663 204.602 608.348L201.947 602.063C203.838 601.338 205.91 600.754 208.163 600.311C210.415 599.828 213.07 599.586 216.128 599.586ZM246.281 613.243C246.281 613.927 246.24 614.773 246.16 615.78C246.119 616.788 246.059 617.815 245.979 618.862C245.938 619.909 245.878 620.837 245.798 621.642C245.718 622.447 245.657 623.012 245.617 623.334L260.823 600.19L271.625 600.19L271.625 633.184L262.935 633.184L262.935 620.01C262.935 618.923 262.976 617.734 263.056 616.445C263.136 615.116 263.217 613.887 263.297 612.759C263.418 611.591 263.498 610.705 263.539 610.1L248.393 633.184L237.591 633.184L237.591 600.19L246.281 600.19L246.281 613.243ZM302.625 600.19L312.521 600.19L299.487 616.022L313.667 633.184L303.47 633.184L290.013 616.445L290.013 633.184L281.022 633.184L281.022 600.19L290.013 600.19L290.013 616.203L302.625 600.19ZM331.899 599.525C336.324 599.525 339.704 600.492 342.037 602.426C344.41 604.319 345.597 607.24 345.597 611.188L345.597 633.184L339.322 633.184L337.572 628.712L337.33 628.712C336.404 629.88 335.439 630.847 334.434 631.613C333.468 632.378 332.342 632.922 331.055 633.244C329.807 633.607 328.258 633.788 326.408 633.788C324.477 633.788 322.727 633.425 321.158 632.7C319.629 631.934 318.422 630.786 317.538 629.256C316.653 627.685 316.21 625.71 316.21 623.334C316.21 619.829 317.437 617.251 319.891 615.599C322.345 613.907 326.025 612.981 330.934 612.82L336.667 612.638L336.667 611.188C336.667 609.455 336.204 608.186 335.279 607.381C334.393 606.576 333.146 606.173 331.537 606.173C329.928 606.173 328.359 606.414 326.831 606.898C325.301 607.34 323.773 607.905 322.245 608.59L319.288 602.486C321.058 601.56 323.008 600.835 325.141 600.311C327.313 599.787 329.566 599.525 331.899 599.525ZM333.167 618.016C330.27 618.097 328.258 618.621 327.132 619.587C326.006 620.554 325.443 621.823 325.443 623.394C325.443 624.764 325.844 625.751 326.65 626.355C327.454 626.919 328.5 627.201 329.787 627.201C331.718 627.201 333.348 626.638 334.675 625.509C336.003 624.341 336.667 622.71 336.667 620.615L336.667 617.895L333.167 618.016Z" fill="#010F0F"/>
<path d="M428.248 543.211L382.373 701.165L334.417 701.165L370.124 588.571L321.821 588.571L321.821 543.211L428.248 543.211Z" fill="#01E0B1"/>
<path d="M47.4951 0.583007L0.352295 0.583008L0.3523 795.583L47.4952 795.583L47.4951 0.583007Z" fill="#010F0F"/>
<path d="M805.541 487.78L792.889 487.004C787.572 486.677 782.716 483.87 779.776 479.422L777.448 475.901C774.507 471.453 769.651 468.645 764.334 468.32L760.125 468.061C754.808 467.735 749.952 464.928 747.012 460.48L744.684 456.958C741.743 452.51 736.888 449.703 731.571 449.377L727.361 449.119C722.044 448.792 717.189 445.985 714.248 441.537L711.92 438.016C708.979 433.568 704.124 430.76 698.807 430.434L694.598 430.176C689.281 429.85 684.425 427.043 681.485 422.595L679.157 419.073C676.216 414.625 671.36 411.818 666.043 411.491L661.834 411.234C656.517 410.907 651.662 408.1 648.721 403.652L646.393 400.131C643.453 395.683 638.597 392.875 633.28 392.549L629.07 392.29C623.753 391.965 618.898 389.158 615.958 384.71L613.629 381.188C610.689 376.74 605.833 373.933 600.517 373.606L596.307 373.348C590.99 373.022 586.134 370.215 583.194 365.767L580.866 362.246C577.925 357.798 573.069 354.99 567.752 354.664L563.543 354.405C558.227 354.08 553.371 351.272 550.43 346.824L548.102 343.303C545.162 338.855 540.306 336.048 534.989 335.721L530.78 335.463C525.462 335.136 520.608 332.329 517.667 327.881L515.339 324.36C512.398 319.912 507.542 317.104 502.226 316.779L498.016 316.52C492.699 316.194 487.843 313.387 484.903 308.939L482.575 305.417C479.635 300.969 474.779 298.162 469.461 297.836L465.253 297.578C459.936 297.251 455.08 294.444 452.139 289.996L449.811 286.475C446.871 282.027 442.015 279.219 436.698 278.893L432.489 278.635C427.172 278.309 422.317 275.502 419.376 271.054L417.048 267.532C414.107 263.084 409.252 260.277 403.935 259.95L399.726 259.693C394.408 259.366 389.553 256.559 386.613 252.111L384.285 248.59C381.344 244.142 376.488 241.334 371.171 241.008L366.962 240.75C361.645 240.424 356.789 237.617 353.848 233.169L351.52 229.647C348.58 225.199 343.725 222.392 338.407 222.065L334.198 221.807C328.881 221.481 324.026 218.674 321.085 214.226L318.757 210.705C315.816 206.257 310.961 203.449 305.644 203.123L301.435 202.864C296.118 202.539 291.262 199.731 288.322 195.283L281.324 184.698" stroke="#FA0012" stroke-width="3"/>
<path d="M697.156 615.209L685.135 611.18C680.083 609.487 676.119 605.516 674.428 600.458L673.089 596.453C671.399 591.394 667.434 587.424 662.382 585.731L658.384 584.39C653.332 582.698 649.367 578.727 647.677 573.669L646.338 569.664C644.647 564.606 640.682 560.636 635.632 558.943L631.632 557.602C626.581 555.909 622.616 551.939 620.925 546.88L619.587 542.876C617.895 537.817 613.932 533.847 608.88 532.154L604.881 530.813C599.829 529.12 595.865 525.15 594.174 520.091L592.835 516.087C591.145 511.028 587.18 507.058 582.128 505.364L578.129 504.025C573.078 502.331 569.113 498.361 567.422 493.303L566.084 489.297C564.393 484.239 560.428 480.269 555.377 478.576L551.378 477.235C546.327 475.542 542.362 471.572 540.671 466.513L539.333 462.509C537.641 457.45 533.678 453.48 528.626 451.787L524.627 450.446C519.575 448.753 515.611 444.783 513.92 439.724L512.581 435.72C510.891 430.661 506.926 426.692 501.874 424.998L497.875 423.658C492.824 421.964 488.859 417.994 487.168 412.936L485.829 408.931C484.139 403.873 480.174 399.902 475.123 398.209L471.124 396.869C466.073 395.176 462.108 391.205 460.417 386.147L459.079 382.142C457.388 377.083 453.423 373.113 448.372 371.42L444.373 370.079C439.321 368.387 435.356 364.416 433.666 359.357L432.327 355.353C430.636 350.294 426.672 346.325 421.62 344.631L417.621 343.291C412.569 341.597 408.605 337.627 406.914 332.569L405.576 328.564C403.885 323.506 399.92 319.536 394.869 317.843L390.87 316.502C385.819 314.809 381.854 310.839 380.163 305.78L378.825 301.776C377.134 296.717 373.169 292.746 368.117 291.053L364.119 289.713C359.067 288.02 355.102 284.049 353.412 278.991L352.073 274.986C350.382 269.927 346.418 265.958 341.366 264.264L337.367 262.924C332.315 261.231 328.352 257.26 326.66 252.202L325.322 248.197C323.631 243.139 319.666 239.169 314.615 237.476L310.615 236.135C305.565 234.442 301.6 230.472 299.909 225.413L298.57 221.409C296.88 216.35 292.915 212.38 287.863 210.687L283.865 209.346C278.813 207.653 274.848 203.683 273.158 198.624L269.134 186.586" stroke="#FA0012" stroke-width="3"/>
<mask id="mask0_823_1162" style="mask-type:alpha" maskUnits="userSpaceOnUse" x="173" y="109" width="567" height="410">
<path d="M739.552 109.164L173.838 109.164L173.838 518.938L739.552 518.938L739.552 109.164Z" fill="#D9D9D9"/>
</mask>
<g mask="url(#mask0_823_1162)">
<path d="M557.26 716.26L546.691 709.252C542.249 706.309 539.446 701.446 539.12 696.121L538.862 691.906C538.536 686.582 535.733 681.719 531.291 678.774L527.774 676.443C523.333 673.498 520.53 668.636 520.204 663.312L519.946 659.097C519.62 653.772 516.817 648.91 512.375 645.965L508.859 643.634C504.417 640.689 501.614 635.826 501.288 630.502L501.029 626.287C500.704 620.962 497.901 616.101 493.459 613.156L489.942 610.824C485.501 607.88 482.697 603.017 482.372 597.693L482.114 593.477C481.788 588.153 478.984 583.29 474.543 580.345L471.027 578.014C466.585 575.069 463.782 570.208 463.456 564.883L463.197 560.668C462.872 555.344 460.069 550.481 455.627 547.536L452.11 545.205C447.668 542.26 444.865 537.397 444.54 532.073L444.282 527.858C443.955 522.534 441.152 517.672 436.71 514.727L433.195 512.396C428.753 509.451 425.95 504.588 425.623 499.264L425.365 495.049C425.04 489.724 422.237 484.861 417.795 481.917L414.278 479.586C409.836 476.641 407.033 471.779 406.708 466.455L406.449 462.239C406.123 456.915 403.32 452.052 398.878 449.107L395.362 446.776C390.921 443.831 388.118 438.969 387.791 433.644L387.533 429.429C387.208 424.105 384.405 419.243 379.963 416.298L376.446 413.967C372.004 411.022 369.201 406.159 368.876 400.835L368.617 396.62C368.291 391.295 365.488 386.433 361.046 383.488L357.53 381.157C353.088 378.212 350.285 373.35 349.959 368.026L349.701 363.81C349.376 358.486 346.572 353.623 342.131 350.679L338.614 348.347C334.172 345.403 331.369 340.541 331.043 335.216L330.785 331.001C330.459 325.676 327.656 320.814 323.214 317.869L319.698 315.538C315.256 312.593 312.453 307.731 312.127 302.406L311.869 298.191C311.543 292.867 308.74 288.004 304.298 285.06L300.782 282.728C296.34 279.783 293.537 274.921 293.21 269.597L292.953 265.382C292.627 260.057 289.824 255.195 285.382 252.25L281.866 249.919C277.424 246.974 274.621 242.112 274.295 236.787L274.036 232.572C273.711 227.247 270.908 222.385 266.466 219.44L262.949 217.109C258.508 214.165 255.705 209.302 255.378 203.977L254.603 191.307" stroke="#FA0012" stroke-width="3"/>
</g>
<mask id="mask1_823_1162" style="mask-type:alpha" maskUnits="userSpaceOnUse" x="173" y="109" width="567" height="410">
<path d="M739.552 109.164L173.838 109.164L173.838 518.938L739.552 518.938L739.552 109.164Z" fill="#D9D9D9"/>
</mask>
<g mask="url(#mask1_823_1162)">
<path d="M393.355 776.816L384.957 767.308C381.428 763.312 379.977 757.889 381.038 752.662L381.879 748.524C382.939 743.296 381.488 737.872 377.959 733.877L375.166 730.714C371.635 726.718 370.184 721.295 371.246 716.068L372.086 711.929C373.148 706.701 371.697 701.279 368.168 697.283L365.374 694.119C361.844 690.124 360.393 684.701 361.455 679.473L362.295 675.335C363.356 670.108 361.905 664.684 358.376 660.689L355.581 657.526C352.052 653.53 350.601 648.106 351.663 642.878L352.503 638.74C353.565 633.513 352.114 628.09 348.585 624.094L345.79 620.931C342.261 616.935 340.81 611.512 341.871 606.285L342.711 602.147C343.773 596.919 342.322 591.495 338.793 587.499L335.998 584.336C332.469 580.341 331.018 574.917 332.08 569.69L332.92 565.552C333.982 560.324 332.53 554.901 329 550.906L326.207 547.742C322.678 543.746 321.227 538.324 322.288 533.096L323.128 528.957C324.19 523.73 322.739 518.307 319.209 514.311L316.415 511.148C312.886 507.153 311.435 501.729 312.496 496.501L313.337 492.363C314.397 487.136 312.946 481.713 309.417 477.717L306.624 474.554C303.094 470.558 301.643 465.135 302.704 459.908L303.545 455.769C304.606 450.541 303.155 445.118 299.626 441.122L296.832 437.959C293.303 433.963 291.851 428.54 292.913 423.313L293.753 419.175C294.814 413.947 293.363 408.523 289.834 404.528L287.04 401.365C283.51 397.369 282.059 391.945 283.121 386.719L283.961 382.58C285.023 377.352 283.572 371.93 280.043 367.934L277.249 364.77C273.719 360.775 272.268 355.352 273.329 350.124L274.17 345.986C275.231 340.759 273.78 335.335 270.251 331.339L267.456 328.176C263.927 324.181 262.476 318.757 263.538 313.529L264.378 309.391C265.44 304.164 263.989 298.741 260.459 294.745L257.665 291.582C254.136 287.586 252.685 282.163 253.746 276.936L254.586 272.797C255.648 267.57 254.197 262.146 250.668 258.15L247.873 254.987C244.344 250.992 242.893 245.568 243.955 240.341L244.795 236.203C245.856 230.975 244.405 225.552 240.875 221.557L238.082 218.393C234.553 214.397 233.101 208.975 234.163 203.747L236.689 191.307" stroke="#FA0012" stroke-width="3"/>
</g>
</g>
<defs>
<clipPath id="clip0_823_1162">
<rect width="561" height="795" fill="white" transform="translate(0.352295 0.583008)"/>
</clipPath>
</defs>
</svg>
