<svg width="492" height="697" viewBox="0 0 492 697" fill="none" xmlns="http://www.w3.org/2000/svg">
<g clip-path="url(#clip0_824_1236)">
<path d="M492 -3.34494e-06L0 0L4.73866e-06 697L492 697L492 -3.34494e-06Z" fill="#CBCDBF"/>
<path d="M383.677 374.162C398.291 374.162 410.138 362.302 410.138 347.672C410.138 333.043 398.291 321.183 383.677 321.183C369.064 321.183 357.217 333.043 357.217 347.672C357.217 362.302 369.064 374.162 383.677 374.162Z" fill="#FBED00"/>
<path d="M173.647 248.337C235.299 248.337 285.277 198.304 285.277 136.585C285.277 74.8665 235.299 24.8335 173.647 24.8335C111.995 24.8335 62.0167 74.8665 62.0167 136.585C62.0167 198.304 111.995 248.337 173.647 248.337Z" fill="#FBED00"/>
<path d="M454.097 18.373C479.922 79.7727 484.928 147.955 468.349 212.474C451.771 276.994 414.522 334.294 362.308 375.599C310.094 416.903 245.794 439.933 179.257 441.161C112.721 442.389 47.6163 421.748 -6.08337 382.399L-1.48019 376.104C50.8442 414.444 114.281 434.557 179.114 433.36C243.946 432.163 306.599 409.724 357.476 369.477C408.353 329.231 444.647 273.398 460.801 210.531C476.956 147.663 472.077 81.2278 446.914 21.4007L454.097 18.373Z" fill="white"/>
<path d="M394.323 337.428L373.444 358.33L518.77 503.814L539.649 482.913L394.323 337.428Z" fill="#010F0F"/>
<path d="M448.209 7.80273L472.332 32.8848L442.198 42.0978L448.209 7.80273Z" fill="white"/>
<path d="M117.313 516.263L117.313 520.925C121.44 521.031 124.722 521.756 127.156 523.097C129.626 524.404 131.39 526.1 132.448 528.183C133.542 530.267 134.089 532.545 134.089 535.018C134.089 536.607 133.807 538.232 133.242 539.892C132.713 541.551 131.796 543.088 130.49 544.501C129.22 545.878 127.509 547.008 125.357 547.891C123.204 548.775 120.523 549.251 117.313 549.322L117.313 555.15L110.115 555.15L110.115 549.322C106.87 549.251 104.153 548.775 101.965 547.891C99.8131 547.008 98.1022 545.861 96.8321 544.448C95.562 543.035 94.6624 541.517 94.1332 539.892C93.604 538.232 93.3394 536.607 93.3394 535.018C93.3394 533.181 93.6395 531.432 94.239 529.773C94.8385 528.113 95.7911 526.63 97.0968 525.323C98.4024 524.015 100.131 522.974 102.283 522.197C104.435 521.419 107.046 520.996 110.115 520.925L110.115 516.263L117.313 516.263ZM110.115 527.177C107.822 527.283 105.987 527.689 104.612 528.395C103.271 529.067 102.3 529.967 101.701 531.097C101.136 532.227 100.854 533.517 100.854 534.965C100.854 536.554 101.172 537.949 101.807 539.15C102.477 540.315 103.483 541.252 104.823 541.958C106.199 542.629 107.963 543.017 110.115 543.123L110.115 527.177ZM117.313 543.123C119.465 543.017 121.211 542.629 122.552 541.958C123.928 541.252 124.933 540.315 125.568 539.15C126.239 537.949 126.574 536.554 126.574 534.965C126.574 533.517 126.274 532.227 125.674 531.097C125.109 529.967 124.139 529.067 122.763 528.395C121.423 527.689 119.606 527.283 117.313 527.177L117.313 543.123ZM148.237 537.137C148.237 537.737 148.202 538.479 148.132 539.362C148.096 540.245 148.043 541.146 147.973 542.064C147.937 542.982 147.884 543.795 147.814 544.501C147.743 545.207 147.69 545.702 147.655 545.984L160.991 525.693L170.464 525.693L170.464 554.62L162.844 554.62L162.844 543.07C162.844 542.117 162.878 541.075 162.949 539.945C163.02 538.779 163.09 537.702 163.161 536.713C163.267 535.689 163.337 534.912 163.373 534.382L150.089 554.62L140.617 554.62L140.617 525.693L148.237 525.693L148.237 537.137ZM189.236 525.164C191.318 525.164 193.258 525.446 195.058 526.011C196.893 526.541 198.356 527.371 199.45 528.501C200.579 529.631 201.144 531.08 201.144 532.845C201.144 534.576 200.614 535.954 199.556 536.978C198.533 538.002 197.139 538.743 195.375 539.203L195.375 539.468C196.61 539.75 197.721 540.157 198.709 540.686C199.697 541.181 200.473 541.869 201.038 542.752C201.637 543.6 201.937 544.748 201.937 546.196C201.937 547.785 201.426 549.269 200.403 550.646C199.415 551.988 197.862 553.083 195.746 553.931C193.664 554.743 190.983 555.149 187.702 555.149C186.15 555.149 184.685 555.079 183.309 554.938C181.933 554.796 180.681 554.602 179.552 554.355C178.423 554.073 177.435 553.736 176.588 553.348L176.588 546.832C177.788 547.397 179.252 547.909 180.981 548.368C182.744 548.828 184.615 549.057 186.59 549.057C188.037 549.057 189.325 548.951 190.454 548.739C191.618 548.527 192.535 548.174 193.205 547.68C193.911 547.185 194.264 546.531 194.264 545.719C194.264 544.942 193.964 544.306 193.364 543.812C192.765 543.282 191.865 542.894 190.665 542.647C189.465 542.399 187.931 542.276 186.061 542.276L182.992 542.276L182.992 536.819L185.902 536.819C188.513 536.819 190.524 536.607 191.935 536.183C193.382 535.759 194.105 534.965 194.105 533.799C194.105 532.881 193.646 532.192 192.729 531.733C191.812 531.239 190.312 530.991 188.231 530.991C186.855 530.991 185.356 531.15 183.733 531.468C182.109 531.786 180.575 532.245 179.128 532.845L176.8 527.336C178.458 526.7 180.275 526.188 182.251 525.799C184.226 525.376 186.555 525.164 189.236 525.164ZM215.68 537.137C215.68 537.737 215.645 538.479 215.574 539.362C215.539 540.245 215.486 541.146 215.416 542.064C215.38 542.982 215.327 543.795 215.257 544.501C215.187 545.207 215.134 545.702 215.098 545.984L228.434 525.693L237.907 525.693L237.907 554.62L230.287 554.62L230.287 543.07C230.287 542.117 230.322 541.075 230.392 539.945C230.463 538.779 230.534 537.702 230.604 536.713C230.71 535.689 230.78 534.912 230.816 534.382L217.533 554.62L208.06 554.62L208.06 525.693L215.68 525.693L215.68 537.137ZM265.094 525.693L273.774 525.693L262.343 539.574L274.779 554.62L265.835 554.62L254.034 539.945L254.034 554.62L246.149 554.62L246.149 525.693L254.034 525.693L254.034 539.733L265.094 525.693ZM290.769 525.111C294.649 525.111 297.613 525.958 299.659 527.654C301.741 529.313 302.782 531.874 302.782 535.335L302.782 554.62L297.278 554.62L295.743 550.699L295.532 550.699C294.72 551.723 293.873 552.571 292.991 553.242C292.145 553.914 291.156 554.39 290.028 554.673C288.934 554.991 287.575 555.149 285.953 555.149C284.259 555.149 282.725 554.832 281.349 554.196C280.007 553.525 278.949 552.518 278.173 551.176C277.397 549.799 277.009 548.068 277.009 545.984C277.009 542.911 278.085 540.651 280.237 539.203C282.389 537.72 285.617 536.907 289.922 536.766L294.949 536.607L294.949 535.335C294.949 533.816 294.543 532.704 293.732 531.998C292.956 531.292 291.862 530.938 290.451 530.938C289.04 530.938 287.664 531.15 286.323 531.574C284.982 531.962 283.642 532.457 282.301 533.057L279.708 527.707C281.26 526.894 282.971 526.259 284.841 525.799C286.747 525.34 288.722 525.111 290.769 525.111ZM291.88 541.322C289.34 541.392 287.575 541.852 286.588 542.699C285.6 543.547 285.106 544.66 285.106 546.037C285.106 547.238 285.458 548.103 286.164 548.633C286.87 549.127 287.787 549.375 288.916 549.375C290.61 549.375 292.039 548.881 293.203 547.891C294.367 546.867 294.949 545.437 294.949 543.6L294.949 541.216L291.88 541.322Z" fill="#010F0F"/>
<path d="M375.267 475.738L335.034 614.221L292.976 614.221L324.292 515.507L281.93 515.507L281.93 475.738L375.267 475.738Z" fill="#FA0012"/>
<path d="M41.3445 -2.81087e-07L0 0L4.73866e-06 697L41.3445 697L41.3445 -2.81087e-07Z" fill="#010F0F"/>
<path d="M91.593 54.8262L383.485 347.036" stroke="white" stroke-width="5"/>
<path d="M383.677 362.572C391.897 362.572 398.561 355.901 398.561 347.672C398.561 339.443 391.897 332.772 383.677 332.772C375.457 332.772 368.793 339.443 368.793 347.672C368.793 355.901 375.457 362.572 383.677 362.572Z" fill="#FA0012"/>
<path d="M95.0924 67.0512C100.116 67.0512 104.188 62.9745 104.188 57.9455C104.188 52.9166 100.116 48.8398 95.0924 48.8398C90.0689 48.8398 85.9966 52.9166 85.9966 57.9455C85.9966 62.9745 90.0689 67.0512 95.0924 67.0512Z" fill="white"/>
<path d="M407.244 365.884C410.669 365.884 413.445 363.104 413.445 359.675C413.445 356.246 410.669 353.467 407.244 353.467C403.819 353.467 401.042 356.246 401.042 359.675C401.042 363.104 403.819 365.884 407.244 365.884Z" fill="white"/>
<path d="M227.158 455.638C239.813 462.953 255.996 458.612 263.303 445.942C270.61 433.272 266.274 417.072 253.618 409.757C240.962 402.442 224.779 406.783 217.472 419.453C210.166 432.122 214.502 448.323 227.158 455.638Z" fill="#FBED00"/>
<path d="M254.724 429.154L226.203 436.805L238.222 481.71L266.743 474.059L254.724 429.154Z" fill="#010F0F"/>
<path d="M189.91 245.262L240.79 435.354" stroke="white" stroke-width="5"/>
<path d="M232.945 445.601C240.064 449.715 249.167 447.274 253.277 440.147C257.387 433.02 254.948 423.907 247.829 419.793C240.71 415.678 231.607 418.12 227.497 425.247C223.387 432.373 225.826 441.486 232.945 445.601Z" fill="#FA0012"/>
<path d="M185.658 253.761C190.009 256.276 195.572 254.784 198.084 250.428C200.595 246.073 199.105 240.504 194.754 237.99C190.404 235.475 184.841 236.968 182.329 241.323C179.817 245.678 181.308 251.247 185.658 253.761Z" fill="white"/>
<path d="M251.701 460.264C254.668 461.979 258.46 460.961 260.173 457.992C261.886 455.022 260.869 451.225 257.903 449.511C254.937 447.797 251.144 448.814 249.431 451.783C247.719 454.753 248.735 458.55 251.701 460.264Z" fill="white"/>
<path d="M173.647 162.247C187.804 162.247 199.281 150.758 199.281 136.585C199.281 122.413 187.804 110.924 173.647 110.924C159.49 110.924 148.013 122.413 148.013 136.585C148.013 150.758 159.49 162.247 173.647 162.247Z" fill="#FA0012"/>
</g>
<defs>
<clipPath id="clip0_824_1236">
<rect width="492" height="697" fill="white"/>
</clipPath>
</defs>
</svg>
