<svg width="415" height="587" viewBox="0 0 415 587" fill="none" xmlns="http://www.w3.org/2000/svg">
<g clip-path="url(#clip0_823_1188)">
<path d="M414.432 0.0400362L0.432129 0.0400391L0.432133 586.04L414.432 586.04L414.432 0.0400362Z" fill="#CBCDBF"/>
<path d="M35.222 0.0400388L0.432129 0.0400391L0.432133 586.04L35.222 586.04L35.222 0.0400388Z" fill="#010F0F"/>
<path d="M239.091 337.93C321.135 337.93 387.644 271.405 387.644 189.342C387.644 107.279 321.135 40.7539 239.091 40.7539C157.048 40.7539 90.5381 107.279 90.5381 189.342C90.5381 271.405 157.048 337.93 239.091 337.93Z" fill="#FC8D00" stroke="white" stroke-width="5"/>
<mask id="mask0_823_1188" style="mask-type:alpha" maskUnits="userSpaceOnUse" x="183" y="184" width="111" height="61">
<path d="M288.493 189.342C288.493 195.922 287.197 202.438 284.679 208.518C282.162 214.598 278.472 220.121 273.82 224.775C269.167 229.428 263.645 233.119 257.566 235.637C251.489 238.155 244.974 239.451 238.395 239.451C231.816 239.451 225.302 238.155 219.224 235.637C213.145 233.119 207.623 229.428 202.971 224.775C198.319 220.121 194.629 214.598 192.111 208.518C189.593 202.438 188.298 195.922 188.298 189.342L190.066 189.342C190.066 195.69 191.316 201.976 193.744 207.841C196.173 213.706 199.733 219.035 204.221 223.524C208.709 228.013 214.037 231.573 219.9 234.003C225.764 236.432 232.049 237.683 238.395 237.683C244.741 237.683 251.027 236.432 256.89 234.003C262.754 231.573 268.081 228.013 272.569 223.524C277.057 219.035 280.617 213.706 283.046 207.841C285.474 201.976 286.725 195.69 286.725 189.342L288.493 189.342Z" stroke="white" stroke-width="10"/>
</mask>
<g mask="url(#mask0_823_1188)">
<path d="M288.493 189.342C288.493 195.922 287.197 202.438 284.679 208.518C282.162 214.598 278.472 220.121 273.82 224.775C269.167 229.428 263.645 233.119 257.566 235.637C251.489 238.155 244.974 239.451 238.395 239.451C231.816 239.451 225.302 238.155 219.224 235.637C213.145 233.119 207.623 229.428 202.971 224.775C198.319 220.121 194.629 214.598 192.111 208.518C189.593 202.438 188.298 195.922 188.298 189.342L190.066 189.342C190.066 195.69 191.316 201.976 193.744 207.841C196.173 213.706 199.733 219.035 204.221 223.524C208.709 228.013 214.037 231.573 219.9 234.003C225.764 236.432 232.049 237.683 238.395 237.683C244.741 237.683 251.027 236.432 256.89 234.003C262.754 231.573 268.081 228.013 272.569 223.524C277.057 219.035 280.617 213.706 283.046 207.841C285.474 201.976 286.725 195.69 286.725 189.342L288.493 189.342Z" stroke="white" stroke-width="10"/>
</g>
<path d="M189.689 183.774L193.907 192.125L185.471 192.125L189.689 183.774Z" fill="white"/>
<path d="M355.467 87.2905L308.379 60.0981L260.661 142.769L307.748 169.961L355.467 87.2905Z" fill="#7AC7F1"/>
<path d="M260.593 143.046L277.987 133.001L260.593 122.956L260.593 143.046ZM308.02 57.4004L266.914 128.615L269.927 130.355L311.033 59.1403L308.02 57.4004Z" fill="white"/>
<path d="M309.962 58.5195L237.845 183.46" stroke="white" stroke-width="3"/>
<path d="M308.02 170.255L318.063 152.856L297.978 152.856L308.02 170.255ZM306.281 60.293L306.281 154.596L309.76 154.596L309.76 60.293L306.281 60.293Z" fill="white"/>
<path d="M355.758 86.7264L345.715 69.3274L335.673 86.7264L355.758 86.7264ZM306.728 60.4208L341.331 80.4036L343.07 77.3901L308.467 57.4072L306.728 60.4208Z" fill="white"/>
<mask id="mask1_823_1188" style="mask-type:alpha" maskUnits="userSpaceOnUse" x="301" y="67" width="37" height="26">
<path d="M331.719 73.519C331.179 76.0189 330.12 78.3776 328.608 80.4404C327.096 82.5032 325.167 84.2243 322.947 85.4924C320.726 86.7604 318.262 87.5462 315.718 87.7988C313.173 88.0514 310.604 87.7647 308.177 86.9581L308.727 85.3038C310.922 86.0331 313.245 86.292 315.546 86.0638C317.847 85.8355 320.074 85.1249 322.082 83.9787C324.09 82.8317 325.835 81.2755 327.202 79.4097C328.569 77.5445 329.527 75.4121 330.016 73.1509L331.719 73.519Z" stroke="white" stroke-width="10"/>
</mask>
<g mask="url(#mask1_823_1188)">
<path d="M331.719 73.519C331.179 76.0189 330.12 78.3776 328.608 80.4404C327.096 82.5032 325.167 84.2243 322.947 85.4924C320.726 86.7604 318.262 87.5462 315.718 87.7988C313.173 88.0514 310.604 87.7647 308.177 86.9581L308.727 85.3038C310.922 86.0331 313.245 86.292 315.546 86.0638C317.847 85.8355 320.074 85.1249 322.082 83.9787C324.09 82.8317 325.835 81.2755 327.202 79.4097C328.569 77.5445 329.527 75.4121 330.016 73.1509L331.719 73.519Z" stroke="white" stroke-width="10"/>
</g>
<path d="M307.975 60.5889L307.975 352.893" stroke="white" stroke-width="3"/>
<path d="M309.526 58.2705L237.699 183.774" stroke="white" stroke-width="3"/>
<path d="M237.699 185.862C239.237 185.862 240.483 184.616 240.483 183.078C240.483 181.541 239.237 180.294 237.699 180.294C236.162 180.294 234.916 181.541 234.916 183.078C234.916 184.616 236.162 185.862 237.699 185.862Z" fill="white"/>
<path d="M237.699 183.426L307.975 183.426" stroke="white" stroke-width="3" stroke-dasharray="6 6"/>
<path d="M320.499 352.893L295.451 352.893L295.451 377.947L320.499 377.947L320.499 352.893Z" fill="white"/>
<path d="M99.1465 434.086L99.1465 438.006C102.62 438.095 105.381 438.704 107.429 439.832C109.508 440.931 110.992 442.357 111.882 444.108C112.803 445.86 113.263 447.775 113.263 449.854C113.263 451.19 113.026 452.557 112.55 453.952C112.105 455.347 111.333 456.639 110.235 457.827C109.166 458.985 107.726 459.935 105.915 460.678C104.104 461.42 101.848 461.821 99.1465 461.88L99.1465 466.78L93.0902 466.78L93.0902 461.88C90.3592 461.821 88.0728 461.42 86.2324 460.678C84.4213 459.935 82.9817 458.971 81.9129 457.783C80.8442 456.595 80.0872 455.318 79.6418 453.952C79.1965 452.557 78.9739 451.19 78.9739 449.854C78.9739 448.31 79.2265 446.84 79.7309 445.445C80.2354 444.049 81.0369 442.802 82.1356 441.703C83.2343 440.604 84.6885 439.729 86.4996 439.075C88.3108 438.422 90.5074 438.065 93.0902 438.006L93.0902 434.086L99.1465 434.086ZM93.0902 443.262C91.1608 443.351 89.6168 443.693 88.459 444.286C87.3311 444.851 86.5142 445.608 86.0098 446.558C85.5346 447.508 85.2973 448.592 85.2973 449.81C85.2973 451.146 85.5645 452.319 86.0989 453.328C86.6631 454.308 87.5092 455.095 88.6371 455.689C89.7949 456.253 91.2791 456.58 93.0902 456.669L93.0902 443.262ZM99.1465 456.669C100.958 456.58 102.427 456.253 103.555 455.689C104.713 455.095 105.559 454.308 106.093 453.328C106.658 452.319 106.939 451.146 106.939 449.81C106.939 448.592 106.687 447.508 106.182 446.558C105.707 445.608 104.891 444.851 103.733 444.286C102.605 443.693 101.076 443.351 99.1465 443.262L99.1465 456.669ZM125.169 451.636C125.169 452.14 125.139 452.764 125.08 453.507C125.05 454.249 125.005 455.006 124.946 455.778C124.916 456.55 124.872 457.233 124.812 457.827C124.753 458.421 124.708 458.837 124.679 459.074L135.901 442.015L143.872 442.015L143.872 466.335L137.459 466.335L137.459 456.624C137.459 455.823 137.488 454.946 137.548 453.996C137.607 453.017 137.667 452.111 137.726 451.279C137.815 450.419 137.875 449.765 137.905 449.32L126.727 466.335L118.756 466.335L118.756 442.015L125.169 442.015L125.169 451.636ZM159.668 441.569C161.419 441.569 163.052 441.807 164.566 442.282C166.11 442.727 167.342 443.426 168.262 444.376C169.212 445.326 169.687 446.543 169.687 448.028C169.687 449.483 169.242 450.641 168.351 451.502C167.491 452.363 166.317 452.987 164.833 453.373L164.833 453.596C165.872 453.833 166.807 454.175 167.639 454.62C168.47 455.036 169.123 455.615 169.598 456.357C170.103 457.07 170.355 458.035 170.355 459.252C170.355 460.589 169.924 461.836 169.064 462.994C168.232 464.122 166.926 465.043 165.145 465.756C163.394 466.438 161.137 466.78 158.376 466.78C157.07 466.78 155.838 466.721 154.68 466.602C153.522 466.483 152.468 466.32 151.519 466.112C150.569 465.874 149.737 465.592 149.025 465.266L149.025 459.787C150.034 460.262 151.266 460.692 152.721 461.079C154.205 461.465 155.779 461.658 157.441 461.658C158.658 461.658 159.742 461.569 160.692 461.39C161.672 461.212 162.443 460.915 163.008 460.5C163.601 460.084 163.898 459.534 163.898 458.852C163.898 458.198 163.646 457.664 163.141 457.248C162.637 456.803 161.88 456.476 160.87 456.268C159.86 456.06 158.569 455.956 156.996 455.956L154.413 455.956L154.413 451.369L156.862 451.369C159.059 451.369 160.751 451.19 161.939 450.834C163.156 450.478 163.765 449.81 163.765 448.83C163.765 448.058 163.378 447.479 162.607 447.093C161.835 446.677 160.573 446.469 158.822 446.469C157.664 446.469 156.402 446.603 155.036 446.87C153.671 447.137 152.379 447.523 151.162 448.028L149.203 443.396C150.598 442.861 152.127 442.43 153.79 442.104C155.452 441.748 157.411 441.569 159.668 441.569ZM181.919 451.636C181.919 452.14 181.889 452.764 181.83 453.507C181.8 454.249 181.756 455.006 181.697 455.778C181.667 456.55 181.622 457.233 181.563 457.827C181.504 458.421 181.459 458.837 181.429 459.074L192.651 442.015L200.622 442.015L200.622 466.335L194.21 466.335L194.21 456.624C194.21 455.823 194.24 454.946 194.299 453.996C194.358 453.017 194.418 452.111 194.477 451.279C194.566 450.419 194.625 449.765 194.655 449.32L183.478 466.335L175.507 466.335L175.507 442.015L181.919 442.015L181.919 451.636ZM223.5 442.015L230.803 442.015L221.184 453.685L231.649 466.335L224.123 466.335L214.193 453.996L214.193 466.335L207.557 466.335L207.557 442.015L214.193 442.015L214.193 453.818L223.5 442.015ZM245.103 441.525C248.369 441.525 250.863 442.238 252.585 443.663C254.336 445.058 255.212 447.212 255.212 450.121L255.212 466.335L250.581 466.335L249.289 463.038L249.111 463.038C248.428 463.899 247.715 464.612 246.974 465.176C246.261 465.741 245.43 466.142 244.48 466.379C243.559 466.646 242.416 466.78 241.051 466.78C239.626 466.78 238.335 466.513 237.177 465.978C236.048 465.414 235.158 464.567 234.505 463.439C233.852 462.281 233.525 460.826 233.525 459.074C233.525 456.491 234.431 454.59 236.242 453.373C238.052 452.126 240.769 451.443 244.391 451.324L248.621 451.19L248.621 450.121C248.621 448.844 248.28 447.909 247.597 447.315C246.944 446.722 246.023 446.424 244.836 446.424C243.648 446.424 242.491 446.603 241.363 446.959C240.234 447.285 239.106 447.702 237.978 448.206L235.796 443.707C237.102 443.025 238.542 442.49 240.116 442.104C241.719 441.718 243.381 441.525 245.103 441.525ZM246.039 455.155C243.901 455.214 242.416 455.6 241.585 456.313C240.754 457.025 240.339 457.961 240.339 459.119C240.339 460.129 240.635 460.856 241.229 461.301C241.823 461.717 242.594 461.925 243.545 461.925C244.97 461.925 246.172 461.509 247.152 460.678C248.132 459.817 248.621 458.614 248.621 457.07L248.621 455.065L246.039 455.155Z" fill="#010F0F"/>
<path d="M316.206 400.015L282.351 516.444L246.961 516.444L273.312 433.451L237.666 433.451L237.666 400.015L316.206 400.015Z" fill="#FC8D00"/>
</g>
<defs>
<clipPath id="clip0_823_1188">
<rect width="414" height="586" fill="white" transform="translate(0.432129 0.0400391)"/>
</clipPath>
</defs>
</svg>
