<svg width="352" height="498" viewBox="0 0 352 498" fill="none" xmlns="http://www.w3.org/2000/svg">
<g clip-path="url(#clip0_878_634)">
<path d="M351.329 0.94238L0.328857 0.942383L0.328861 497.942L351.329 497.942L351.329 0.94238Z" fill="#CBCDBF"/>
<path d="M308.305 -70.3038L240.141 -109.682L-67.167 422.903L0.997422 462.281L308.305 -70.3038Z" fill="#01E0B1" stroke="white" stroke-width="5"/>
<path d="M276.567 -86.9348L270.404 -90.4951L159.785 101.214L165.948 104.774L276.567 -86.9348Z" fill="white"/>
<path d="M94.3056 225.034L91.5198 223.425L103.707 202.304L106.493 203.913L94.3056 225.034Z" fill="white"/>
<path d="M83.3432 220.229L80.5574 218.62L92.7444 197.499L95.5302 199.109L83.3432 220.229Z" fill="white"/>
<path d="M103.865 232.093L101.079 230.483L113.981 208.123L116.767 209.733L103.865 232.093Z" fill="white"/>
<path d="M104.501 230.924L81.3242 217.535L-13.7225 382.257L9.45438 395.646L104.501 230.924Z" fill="white"/>
<path d="M118.116 213.633L89.4822 197.092L101.209 176.768L129.843 193.31L118.116 213.633Z" fill="#010F0F"/>
<path d="M136.145 116.223L178.407 109.144L192.037 85.5234L163.403 68.9819L136.145 116.223Z" fill="#010F0F"/>
<path d="M84.0213 369.067L84.0213 372.391C86.9662 372.467 89.3069 372.983 91.0437 373.94C92.8057 374.872 94.064 376.081 94.8191 377.567C95.5996 379.052 95.9895 380.677 95.9895 382.44C95.9895 383.573 95.7884 384.732 95.3854 385.915C95.0079 387.099 94.3537 388.194 93.4222 389.202C92.5161 390.184 91.2956 390.99 89.76 391.62C88.2245 392.249 86.3119 392.589 84.0213 392.64L84.0213 396.795L78.8867 396.795L78.8867 392.64C76.5713 392.589 74.6328 392.249 73.0725 391.62C71.5369 390.99 70.3164 390.172 69.4103 389.164C68.5042 388.157 67.8623 387.074 67.4848 385.915C67.1072 384.732 66.9185 383.573 66.9185 382.44C66.9185 381.13 67.1326 379.883 67.5603 378.7C67.988 377.516 68.6676 376.459 69.599 375.527C70.5305 374.595 71.7634 373.852 73.299 373.298C74.8345 372.744 76.6969 372.441 78.8867 372.391L78.8867 369.067L84.0213 369.067ZM78.8867 376.849C77.2508 376.924 75.9418 377.214 74.9602 377.718C74.0039 378.196 73.3114 378.839 72.8837 379.644C72.4808 380.45 72.2796 381.37 72.2796 382.402C72.2796 383.535 72.5061 384.53 72.9592 385.386C73.4376 386.218 74.155 386.885 75.1112 387.389C76.0928 387.867 77.3511 388.144 78.8867 388.22L78.8867 376.849ZM84.0213 388.22C85.5568 388.144 86.8028 387.867 87.759 387.389C88.7406 386.885 89.458 386.218 89.911 385.386C90.3894 384.53 90.6284 383.535 90.6284 382.402C90.6284 381.37 90.4142 380.45 89.9865 379.644C89.5836 378.839 88.8917 378.196 87.91 377.718C86.9538 377.214 85.6571 376.924 84.0213 376.849L84.0213 388.22ZM106.084 383.951C106.084 384.379 106.058 384.908 106.008 385.538C105.983 386.167 105.945 386.81 105.895 387.464C105.869 388.119 105.832 388.698 105.782 389.202C105.731 389.705 105.693 390.058 105.668 390.26L115.182 375.791L121.941 375.791L121.941 396.417L116.504 396.417L116.504 388.182C116.504 387.502 116.529 386.759 116.579 385.953C116.629 385.122 116.68 384.354 116.73 383.649C116.806 382.919 116.856 382.364 116.881 381.987L107.404 396.417L100.647 396.417L100.647 375.791L106.084 375.791L106.084 383.951ZM135.333 375.413C136.818 375.413 138.202 375.615 139.486 376.018C140.795 376.396 141.839 376.988 142.619 377.793C143.425 378.599 143.828 379.632 143.828 380.891C143.828 382.125 143.45 383.107 142.695 383.838C141.965 384.568 140.971 385.097 139.712 385.424L139.712 385.613C140.593 385.814 141.386 386.104 142.091 386.482C142.796 386.834 143.349 387.325 143.752 387.955C144.18 388.56 144.394 389.378 144.394 390.411C144.394 391.544 144.029 392.602 143.299 393.584C142.594 394.541 141.487 395.322 139.977 395.926C138.492 396.505 136.579 396.795 134.238 396.795C133.131 396.795 132.086 396.745 131.104 396.644C130.123 396.543 129.229 396.405 128.424 396.228C127.618 396.027 126.914 395.787 126.309 395.511L126.309 390.864C127.165 391.267 128.21 391.632 129.443 391.96C130.701 392.287 132.036 392.451 133.445 392.451C134.477 392.451 135.396 392.375 136.201 392.224C137.032 392.073 137.686 391.821 138.164 391.469C138.668 391.116 138.919 390.65 138.919 390.071C138.919 389.516 138.705 389.063 138.278 388.711C137.85 388.333 137.208 388.056 136.352 387.88C135.496 387.703 134.401 387.615 133.068 387.615L130.878 387.615L130.878 383.724L132.954 383.724C134.817 383.724 136.251 383.573 137.258 383.271C138.29 382.969 138.806 382.402 138.806 381.571C138.806 380.916 138.479 380.425 137.825 380.098C137.17 379.745 136.1 379.569 134.615 379.569C133.634 379.569 132.564 379.682 131.406 379.909C130.248 380.135 129.153 380.463 128.122 380.891L126.46 376.962C127.643 376.509 128.94 376.144 130.349 375.867C131.758 375.565 133.42 375.413 135.333 375.413ZM154.198 383.951C154.198 384.379 154.173 384.908 154.123 385.538C154.097 386.167 154.06 386.81 154.01 387.464C153.984 388.119 153.946 388.698 153.896 389.202C153.846 389.705 153.808 390.058 153.783 390.26L163.297 375.791L170.055 375.791L170.055 396.417L164.619 396.417L164.619 388.182C164.619 387.502 164.644 386.759 164.694 385.953C164.744 385.122 164.795 384.354 164.845 383.649C164.921 382.919 164.971 382.364 164.996 381.987L155.52 396.417L148.762 396.417L148.762 375.791L154.198 375.791L154.198 383.951ZM189.451 375.791L195.643 375.791L187.488 385.689L196.36 396.417L189.98 396.417L181.56 385.953L181.56 396.417L175.935 396.417L175.935 375.791L181.56 375.791L181.56 385.802L189.451 375.791ZM207.767 375.376C210.536 375.376 212.65 375.98 214.11 377.189C215.595 378.372 216.338 380.199 216.338 382.667L216.338 396.417L212.411 396.417L211.316 393.622L211.165 393.622C210.586 394.352 209.982 394.956 209.353 395.435C208.749 395.914 208.044 396.254 207.239 396.455C206.458 396.682 205.489 396.795 204.332 396.795C203.124 396.795 202.029 396.568 201.047 396.115C200.09 395.636 199.335 394.919 198.782 393.962C198.228 392.98 197.951 391.745 197.951 390.26C197.951 388.069 198.719 386.457 200.254 385.424C201.789 384.366 204.092 383.787 207.163 383.686L210.75 383.573L210.75 382.667C210.75 381.583 210.46 380.79 209.882 380.287C209.328 379.783 208.547 379.531 207.541 379.531C206.534 379.531 205.552 379.682 204.596 379.984C203.639 380.261 202.683 380.614 201.727 381.042L199.877 377.227C200.984 376.648 202.204 376.194 203.539 375.867C204.898 375.539 206.307 375.376 207.767 375.376ZM208.56 386.935C206.748 386.985 205.489 387.313 204.785 387.917C204.08 388.522 203.728 389.315 203.728 390.297C203.728 391.154 203.979 391.771 204.483 392.148C204.986 392.501 205.64 392.677 206.446 392.677C207.654 392.677 208.673 392.325 209.504 391.62C210.335 390.889 210.75 389.869 210.75 388.56L210.75 386.86L208.56 386.935Z" fill="#010F0F"/>
<path d="M268.05 340.17L239.347 438.916L209.343 438.916L231.683 368.527L201.462 368.527L201.462 340.17L268.05 340.17Z" fill="#01E0B1"/>
<path d="M29.8247 0.942383L0.328857 0.942383L0.328861 497.942L29.8247 497.942L29.8247 0.942383Z" fill="#010F0F"/>
<path d="M504.11 305.517L496.194 305.032C492.867 304.827 489.829 303.073 487.989 300.292L486.533 298.091C484.693 295.31 481.655 293.555 478.328 293.351L475.695 293.189C472.368 292.986 469.33 291.231 467.49 288.45L466.034 286.248C464.194 283.468 461.156 281.713 457.829 281.509L455.195 281.347C451.869 281.143 448.831 279.388 446.991 276.608L445.534 274.407C443.694 271.626 440.657 269.87 437.33 269.667L434.696 269.505C431.37 269.301 428.332 267.547 426.492 264.766L425.035 262.564C423.195 259.783 420.157 258.029 416.831 257.824L414.197 257.663C410.87 257.459 407.833 255.704 405.993 252.923L404.536 250.722C402.696 247.942 399.658 246.186 396.332 245.983L393.698 245.821C390.371 245.617 387.333 243.862 385.494 241.082L384.037 238.88C382.197 236.099 379.159 234.344 375.833 234.14L373.199 233.979C369.872 233.775 366.834 232.02 364.994 229.239L363.538 227.038C361.698 224.257 358.66 222.502 355.333 222.298L352.7 222.137C349.373 221.933 346.335 220.178 344.495 217.397L343.039 215.196C341.199 212.415 338.161 210.66 334.834 210.456L332.201 210.295C328.874 210.09 325.836 208.336 323.996 205.555L322.54 203.354C320.7 200.573 317.662 198.818 314.335 198.614L311.701 198.452C308.375 198.249 305.337 196.494 303.497 193.713L302.04 191.511C300.201 188.731 297.163 186.976 293.836 186.772L291.202 186.61C287.876 186.406 284.838 184.651 282.998 181.871L281.541 179.67C279.701 176.889 276.663 175.133 273.337 174.93L270.703 174.768C267.377 174.564 264.339 172.81 262.499 170.029L261.042 167.827C259.202 165.046 256.164 163.292 252.838 163.087L250.204 162.926C246.877 162.722 243.84 160.967 242 158.186L240.543 155.985C238.703 153.205 235.665 151.449 232.339 151.246L229.705 151.084C226.378 150.88 223.34 149.125 221.5 146.345L220.044 144.143C218.204 141.362 215.166 139.607 211.839 139.403L209.206 139.242C205.879 139.038 202.841 137.283 201.001 134.502L199.545 132.301C197.705 129.52 194.667 127.765 191.34 127.561L188.707 127.4C185.38 127.196 182.342 125.441 180.502 122.66L176.124 116.043" stroke="#FA0012" stroke-width="3"/>
<path d="M436.297 385.18L428.776 382.661C425.615 381.603 423.135 379.121 422.077 375.958L421.239 373.455C420.181 370.292 417.701 367.81 414.54 366.752L412.038 365.914C408.878 364.855 406.397 362.373 405.339 359.211L404.502 356.707C403.444 353.545 400.963 351.063 397.803 350.005L395.301 349.167C392.14 348.108 389.66 345.626 388.602 342.464L387.764 339.961C386.706 336.798 384.226 334.316 381.065 333.257L378.564 332.419C375.403 331.361 372.922 328.879 371.864 325.716L371.027 323.213C369.969 320.05 367.488 317.569 364.328 316.51L361.826 315.672C358.665 314.614 356.184 312.131 355.127 308.969L354.289 306.466C353.231 303.303 350.751 300.821 347.591 299.763L345.088 298.925C341.928 297.867 339.447 295.385 338.389 292.222L337.552 289.719C336.494 286.556 334.014 284.074 330.853 283.016L328.351 282.177C325.19 281.119 322.71 278.637 321.652 275.474L320.814 272.971C319.757 269.809 317.276 267.327 314.115 266.268L311.613 265.431C308.453 264.372 305.972 261.89 304.914 258.728L304.077 256.224C303.019 253.062 300.538 250.58 297.378 249.521L294.876 248.683C291.716 247.625 289.235 245.143 288.177 241.98L287.34 239.477C286.282 236.314 283.801 233.832 280.64 232.774L278.139 231.936C274.978 230.877 272.497 228.395 271.44 225.233L270.602 222.729C269.544 219.567 267.064 217.085 263.903 216.026L261.401 215.189C258.24 214.13 255.76 211.648 254.702 208.486L253.865 205.982C252.806 202.82 250.326 200.338 247.166 199.279L244.663 198.441C241.503 197.383 239.022 194.901 237.965 191.738L237.127 189.235C236.069 186.072 233.589 183.59 230.428 182.532L227.926 181.694C224.765 180.635 222.285 178.153 221.227 174.991L220.389 172.487C219.332 169.325 216.851 166.843 213.69 165.784L211.188 164.947C208.028 163.888 205.548 161.406 204.489 158.244L203.652 155.74C202.594 152.578 200.113 150.096 196.953 149.038L194.451 148.199C191.291 147.141 188.81 144.659 187.752 141.496L186.915 138.993C185.857 135.83 183.376 133.348 180.216 132.29L177.714 131.452C174.553 130.394 172.072 127.911 171.015 124.749L168.497 117.224" stroke="#FA0012" stroke-width="3"/>
<mask id="mask0_878_634" style="mask-type:alpha" maskUnits="userSpaceOnUse" x="108" y="68" width="355" height="257">
<path d="M462.823 68.8223L108.873 68.8223L108.873 324.996L462.823 324.996L462.823 68.8223Z" fill="#D9D9D9"/>
</mask>
<g mask="url(#mask0_878_634)">
<path d="M348.769 448.353L342.156 443.972C339.377 442.132 337.623 439.092 337.419 435.763L337.257 433.128C337.053 429.799 335.3 426.76 332.52 424.918L330.32 423.461C327.541 421.62 325.787 418.58 325.584 415.252L325.422 412.617C325.218 409.288 323.464 406.248 320.685 404.407L318.485 402.95C315.706 401.109 313.952 398.069 313.748 394.741L313.587 392.106C313.383 388.777 311.629 385.738 308.85 383.897L306.65 382.439C303.871 380.598 302.117 377.558 301.913 374.23L301.752 371.594C301.548 368.266 299.794 365.226 297.015 363.385L294.815 361.928C292.036 360.087 290.282 357.047 290.078 353.718L289.916 351.083C289.713 347.755 287.959 344.715 285.18 342.874L282.979 341.417C280.2 339.576 278.446 336.536 278.243 333.207L278.081 330.572C277.877 327.244 276.123 324.204 273.344 322.363L271.144 320.906C268.365 319.065 266.612 316.025 266.407 312.696L266.246 310.061C266.042 306.732 264.288 303.692 261.509 301.852L259.309 300.395C256.53 298.554 254.776 295.514 254.573 292.185L254.411 289.55C254.207 286.221 252.453 283.181 249.674 281.34L247.474 279.883C244.695 278.042 242.941 275.003 242.737 271.674L242.575 269.039C242.372 265.71 240.618 262.67 237.839 260.829L235.639 259.372C232.859 257.531 231.106 254.491 230.902 251.163L230.741 248.528C230.536 245.199 228.783 242.159 226.003 240.318L223.804 238.861C221.025 237.02 219.271 233.98 219.067 230.652L218.905 228.016C218.702 224.688 216.948 221.648 214.169 219.807L211.968 218.349C209.189 216.509 207.435 213.469 207.231 210.141L207.07 207.505C206.866 204.177 205.112 201.137 202.333 199.296L200.133 197.838C197.354 195.997 195.6 192.958 195.396 189.629L195.235 186.994C195.031 183.666 193.277 180.626 190.498 178.785L188.298 177.327C185.519 175.486 183.765 172.447 183.561 169.118L183.4 166.483C183.196 163.154 181.442 160.115 178.663 158.274L176.463 156.816C173.684 154.975 171.93 151.936 171.726 148.607L171.564 145.972C171.361 142.643 169.607 139.603 166.828 137.762L164.627 136.305C161.848 134.464 160.095 131.425 159.89 128.096L159.406 120.175" stroke="#FA0012" stroke-width="3"/>
</g>
<mask id="mask1_878_634" style="mask-type:alpha" maskUnits="userSpaceOnUse" x="108" y="68" width="355" height="257">
<path d="M462.823 68.8223L108.873 68.8223L108.873 324.996L462.823 324.996L462.823 68.8223Z" fill="#D9D9D9"/>
</mask>
<g mask="url(#mask1_878_634)">
<path d="M246.218 486.21L240.964 480.266C238.756 477.768 237.848 474.378 238.511 471.11L239.038 468.523C239.701 465.255 238.793 461.864 236.585 459.366L234.837 457.389C232.629 454.891 231.721 451.5 232.385 448.233L232.911 445.645C233.575 442.377 232.667 438.987 230.459 436.489L228.711 434.511C226.503 432.014 225.595 428.624 226.259 425.355L226.784 422.768C227.449 419.5 226.541 416.11 224.333 413.612L222.584 411.635C220.376 409.137 219.468 405.746 220.133 402.478L220.658 399.891C221.322 396.623 220.415 393.233 218.207 390.735L216.458 388.757C214.25 386.259 213.342 382.869 214.006 379.601L214.532 377.014C215.196 373.746 214.288 370.355 212.08 367.857L210.332 365.88C208.124 363.382 207.216 359.991 207.88 356.724L208.406 354.137C209.07 350.868 208.162 347.478 205.953 344.981L204.205 343.003C201.997 340.505 201.09 337.115 201.754 333.846L202.279 331.259C202.944 327.992 202.036 324.601 199.827 322.103L198.079 320.126C195.871 317.628 194.963 314.237 195.627 310.969L196.153 308.382C196.817 305.114 195.909 301.724 193.701 299.226L191.953 297.248C189.745 294.75 188.837 291.36 189.501 288.092L190.027 285.505C190.69 282.237 189.783 278.846 187.575 276.349L185.827 274.371C183.619 271.873 182.71 268.483 183.374 265.215L183.9 262.628C184.564 259.36 183.656 255.969 181.448 253.471L179.7 251.494C177.492 248.996 176.584 245.605 177.248 242.338L177.774 239.751C178.438 236.482 177.53 233.092 175.322 230.594L173.574 228.616C171.365 226.119 170.458 222.729 171.122 219.46L171.647 216.873C172.312 213.605 171.404 210.215 169.196 207.717L167.447 205.74C165.239 203.242 164.331 199.851 164.996 196.583L165.521 193.996C166.185 190.728 165.278 187.338 163.069 184.84L161.321 182.862C159.113 180.364 158.205 176.974 158.869 173.706L159.395 171.119C160.059 167.851 159.151 164.46 156.943 161.962L155.195 159.985C152.987 157.487 152.079 154.097 152.743 150.829L153.269 148.242C153.933 144.973 153.025 141.583 150.816 139.086L149.068 137.108C146.86 134.61 145.952 131.22 146.617 127.951L148.197 120.175" stroke="#FA0012" stroke-width="3"/>
</g>
</g>
<defs>
<clipPath id="clip0_878_634">
<rect width="351" height="497" fill="white" transform="translate(0.328857 0.942383)"/>
</clipPath>
</defs>
</svg>
