<svg width="106" height="242" viewBox="0 0 106 242" fill="none" xmlns="http://www.w3.org/2000/svg">
<path d="M94.8867 94.7716H95.3111V94.3471V39.1686C95.3111 17.9928 78.1448 0.826526 56.9691 0.826526C35.7934 0.826526 18.6271 17.9928 18.6271 39.1686L18.6271 94.3471V94.7716H19.0515H94.8867Z" fill="#DD4545" stroke="black" stroke-width="0.848901"/>
<path d="M32.3511 27.1424H31.9266V27.5669L31.9266 94.3471V94.7716H32.3511H42.2549H42.6794V94.3471V60.957V45.6575L54.469 39.832L54.7797 39.6786L54.6915 39.3435L53.2767 33.9671L53.2333 33.8024L53.0881 33.7133L42.4768 27.2051L42.3747 27.1424H42.2549H32.3511Z" fill="#5B5B5C" stroke="black" stroke-width="0.848901"/>
<rect x="28.8138" y="115.711" width="13.8654" height="125.354" fill="#5B5B5C" stroke="black" stroke-width="0.848901"/>
<rect x="63.0528" y="115.428" width="13.8654" height="85.739" fill="#5B5B5C" stroke="black" stroke-width="0.848901"/>
<path d="M83.0021 27.5669V27.1424H82.5776H62.7699H52.7246H51.5793L52.448 27.8888L62.2107 36.2765L54.3503 48.2738L54.2809 48.3798V48.5065V62.0889V78.3595V78.4605L54.3264 78.5506L62.391 94.5383L62.5086 94.7716H62.7699H82.5776H83.0021V94.3471V27.5669Z" fill="#5B5B5C" stroke="black" stroke-width="0.848901"/>
<rect x="0.800159" y="93.9227" width="103.849" height="22.3544" fill="#E31E24" stroke="black" stroke-width="0.848901"/>
</svg>
