<svg width="94" height="215" viewBox="0 0 94 215" fill="none" xmlns="http://www.w3.org/2000/svg">
<path d="M84.337 84.211H84.7146V83.8333V34.7376C84.7146 15.8963 69.4407 0.62234 50.5994 0.62234C31.7581 0.62234 16.4842 15.8963 16.4842 34.7376V83.8333V84.211H16.8618H84.337Z" fill="#DD4545" stroke="black" stroke-width="0.755319"/>
<path d="M28.6948 24.0374H28.3172V24.415V83.8335V84.2111H28.6948H37.5069H37.8845V83.8335V54.1243V40.5114L48.3745 35.3281L48.6509 35.1915L48.5725 34.8934L47.3136 30.1097L47.275 29.9631L47.1458 29.8839L37.7043 24.0931L37.6135 24.0374H37.5069H28.6948Z" fill="#5B5B5C" stroke="black" stroke-width="0.755319"/>
<rect x="25.5476" y="102.842" width="12.3369" height="111.535" fill="#5B5B5C" stroke="black" stroke-width="0.755319"/>
<rect x="56.0125" y="102.59" width="12.3369" height="76.2872" fill="#5B5B5C" stroke="black" stroke-width="0.755319"/>
<path d="M73.7625 24.415V24.0374H73.3848H55.7607H46.8228H45.8037L46.5766 24.7015L55.2631 32.1645L48.2693 42.8393L48.2075 42.9335V43.0462V55.1313V69.6083V69.6982L48.248 69.7784L55.4235 84.0036L55.5282 84.2111H55.7607H73.3848H73.7625V83.8335V24.415Z" fill="#5B5B5C" stroke="black" stroke-width="0.755319"/>
<rect x="0.62234" y="83.4553" width="92.4007" height="19.8901" fill="#E31E24" stroke="black" stroke-width="0.755319"/>
</svg>
