<svg width="126" height="83" viewBox="0 0 126 83" fill="none" xmlns="http://www.w3.org/2000/svg">
<rect x="0.7337" y="1.0711" width="124.087" height="80.8159" rx="40.408" fill="#832827" stroke="black" stroke-width="0.636346"/>
<rect x="9.00616" y="6.79767" width="107.542" height="69.3617" rx="34.6808" fill="#D9D9D9" stroke="black" stroke-width="0.636346"/>
<path fill-rule="evenodd" clip-rule="evenodd" d="M79.683 5.66886C82.378 5.66886 84.5628 3.46792 84.5628 0.75293L89.5038 0.75293C89.5038 6.217 85.1069 10.6465 79.683 10.6465L42.809 10.6465C41.8054 10.6465 40.9918 11.4661 40.9918 12.4771C40.9918 13.4881 41.8054 14.3077 42.809 14.3077L83.0519 14.3077C86.6152 14.3077 89.5038 17.2178 89.5038 20.8075C89.5038 24.3972 86.6152 27.3072 83.0519 27.3072H42.6558C41.7368 27.3072 40.9918 28.0577 40.9918 28.9835C40.9918 29.9094 41.7368 30.6599 42.6558 30.6599H82.8988C86.5466 30.6599 89.5038 33.639 89.5038 37.3139C89.5038 40.9888 86.5466 43.9679 82.8988 43.9679H42.3496C41.5997 43.9679 40.9918 44.5803 40.9918 45.3357C40.9918 46.0911 41.5997 46.7035 42.3496 46.7035H82.8988C86.5466 46.7035 89.5038 49.6826 89.5038 53.3575C89.5038 57.0324 86.5466 60.0115 82.8988 60.0115H42.809C41.8054 60.0115 40.9918 60.8311 40.9918 61.8421C40.9918 62.8531 41.8054 63.6727 42.809 63.6727H82.8988C86.5466 63.6727 89.5038 66.6518 89.5038 70.3267C89.5038 74.0016 86.5466 76.9807 82.8988 76.9807H46.1779C43.3137 76.9807 40.9918 79.3198 40.9918 82.2052H36.0508C36.0508 76.5707 40.5848 72.0031 46.1779 72.0031H82.8988C83.8178 72.0031 84.5628 71.2526 84.5628 70.3267C84.5628 69.4009 83.8178 68.6504 82.8988 68.6504H42.809C39.0765 68.6504 36.0508 65.6022 36.0508 61.8421C36.0508 58.082 39.0765 55.0339 42.809 55.0339H82.8988C83.8178 55.0339 84.5628 54.2833 84.5628 53.3575C84.5628 52.4317 83.8178 51.6812 82.8988 51.6812H42.3496C38.8708 51.6812 36.0508 48.8402 36.0508 45.3357C36.0508 41.8312 38.8708 38.9902 42.3496 38.9902H82.8988C83.8178 38.9902 84.5628 38.2397 84.5628 37.3139C84.5628 36.3881 83.8178 35.6375 82.8988 35.6375H42.6558C39.008 35.6375 36.0508 32.6584 36.0508 28.9835C36.0508 25.3086 39.008 22.3296 42.6558 22.3296H83.0519C83.8863 22.3296 84.5628 21.6481 84.5628 20.8075C84.5628 19.9668 83.8863 19.2854 83.0519 19.2854H42.809C39.0765 19.2854 36.0508 16.2372 36.0508 12.4771C36.0508 8.71702 39.0765 5.66886 42.809 5.66886L79.683 5.66886Z" fill="#832827" stroke="black" stroke-width="0.636346"/>
<circle cx="19.5057" cy="41.4788" r="6.68163" fill="#878368" stroke="black" stroke-width="0.636346"/>
<circle cx="106.049" cy="41.4793" r="6.68163" fill="#878368" stroke="black" stroke-width="0.636346"/>
</svg>
