<svg width="197" height="130" viewBox="0 0 197 130" fill="none" xmlns="http://www.w3.org/2000/svg">
<rect x="1.37061" y="1.92578" width="195" height="127" rx="63.5" fill="#832827" stroke="black"/>
<rect x="14.3706" y="10.9258" width="169" height="109" rx="54.5" fill="#D9D9D9" stroke="black"/>
<path fill-rule="evenodd" clip-rule="evenodd" d="M125.437 9.15103C129.673 9.15103 133.106 5.69232 133.106 1.42578L140.871 1.42578C140.871 10.0124 133.961 16.9733 125.437 16.9733L67.4909 16.9733C65.9138 16.9733 64.6353 18.2612 64.6353 19.85C64.6353 21.4388 65.9138 22.7268 67.4909 22.7268L130.732 22.7268C136.331 22.7268 140.871 27.2998 140.871 32.9409C140.871 38.582 136.331 43.1551 130.732 43.1551L67.2503 43.1551C65.8061 43.1551 64.6353 44.3345 64.6353 45.7894C64.6353 47.2443 65.8061 48.4238 67.2503 48.4238L130.491 48.4238C136.223 48.4238 140.871 53.1053 140.871 58.8803C140.871 64.6553 136.223 69.3369 130.491 69.3369H66.769C65.5906 69.3369 64.6353 70.2993 64.6353 71.4864C64.6353 72.6735 65.5906 73.6359 66.769 73.6359H130.491C136.223 73.6359 140.871 78.3174 140.871 84.0924C140.871 89.8675 136.223 94.549 130.491 94.549H67.4909C65.9138 94.549 64.6353 95.837 64.6353 97.4258C64.6353 99.0146 65.9138 100.303 67.4909 100.303H130.491C136.223 100.303 140.871 104.984 140.871 110.759C140.871 116.534 136.223 121.216 130.491 121.216H72.785C68.2841 121.216 64.6353 124.891 64.6353 129.426H56.8706C56.8706 120.571 63.9957 113.393 72.785 113.393H130.491C131.935 113.393 133.106 112.214 133.106 110.759C133.106 109.304 131.935 108.125 130.491 108.125H67.4909C61.6255 108.125 56.8706 103.335 56.8706 97.4258C56.8706 91.5169 61.6255 86.7268 67.4909 86.7268H130.491C131.935 86.7268 133.106 85.5474 133.106 84.0924C133.106 82.6375 131.935 81.4581 130.491 81.4581H66.769C61.3023 81.4581 56.8706 76.9936 56.8706 71.4864C56.8706 65.9792 61.3023 61.5147 66.769 61.5147L130.491 61.5147C131.935 61.5147 133.106 60.3352 133.106 58.8803C133.106 57.4254 131.935 56.246 130.491 56.246L67.2503 56.246C61.5177 56.246 56.8706 51.5644 56.8706 45.7894C56.8706 40.0144 61.5177 35.3329 67.2503 35.3329L130.732 35.3329C132.043 35.3329 133.106 34.262 133.106 32.9409C133.106 31.6199 132.043 30.549 130.732 30.549L67.4909 30.549C61.6255 30.549 56.8706 25.7589 56.8706 19.85C56.8706 13.9411 61.6255 9.15103 67.4909 9.15103L125.437 9.15103Z" fill="#832827" stroke="black"/>
<circle cx="30.8706" cy="65.4258" r="10.5" fill="#878368" stroke="black"/>
<circle cx="166.871" cy="65.4258" r="10.5" fill="#878368" stroke="black"/>
</svg>
