<svg width="61" height="217" viewBox="0 0 61 217" fill="none" xmlns="http://www.w3.org/2000/svg">
<path d="M59.6841 35.2402L59.6841 182.253L1.81012 182.253L1.81012 35.2402L59.6841 35.2402Z" fill="#3F518C"/>
<path fill-rule="evenodd" clip-rule="evenodd" d="M60.8843 34.04L60.8843 183.453L0.61038 183.453L0.610375 34.04L60.8843 34.04ZM59.6843 35.24L1.81035 35.24L1.81035 182.253L59.6843 182.253L59.6843 35.24Z" fill="black"/>
<path d="M59.6841 65.5078L59.6841 71.6848L1.81012 71.6848L1.81012 65.5078L59.6841 65.5078Z" fill="#E31E24"/>
<path fill-rule="evenodd" clip-rule="evenodd" d="M60.8843 64.3076L60.8843 72.8846L0.610376 72.8846L0.610375 64.3076L60.8843 64.3076ZM59.6843 65.5076L1.81035 65.5076L1.81035 71.6846L59.6843 71.6846L59.6843 65.5076Z" fill="black"/>
<path d="M59.6836 43.2705L59.6836 53.1537L1.80963 53.1537L1.80963 43.2705L59.6836 43.2705Z" fill="#E31E24"/>
<path fill-rule="evenodd" clip-rule="evenodd" d="M60.8838 42.0703L60.8838 54.3535L0.609887 54.3535L0.609887 42.0703L60.8838 42.0703ZM59.6838 43.2703L1.80986 43.2703L1.80986 53.1535L59.6838 53.1535L59.6838 43.2703Z" fill="black"/>
<path d="M59.6846 84.0381L59.6846 93.9213L1.81061 93.9213L1.81061 84.0381L59.6846 84.0381Z" fill="#FC8D00"/>
<path fill-rule="evenodd" clip-rule="evenodd" d="M60.8843 82.8389L60.8843 95.122L0.610376 95.122L0.610375 82.8389L60.8843 82.8389ZM59.6843 84.0388L1.81035 84.0388L1.81035 93.9221L59.6843 93.9221L59.6843 84.0388Z" fill="black"/>
<path d="M59.6836 106.276L59.6836 118.63L1.80963 118.63L1.80963 106.276L59.6836 106.276Z" fill="#8FB546"/>
<path fill-rule="evenodd" clip-rule="evenodd" d="M60.8838 105.076L60.8838 119.83L0.609887 119.83L0.609887 105.076L60.8838 105.076ZM59.6838 106.276L1.80986 106.276L1.80986 118.63L59.6838 118.63L59.6838 106.276Z" fill="black"/>
<path d="M36.9033 182.254L36.9033 216.845L24.5897 216.845L24.5897 182.254L36.9033 182.254Z" fill="#5B5B5C"/>
<path fill-rule="evenodd" clip-rule="evenodd" d="M35.7034 215.645L35.7033 183.454L25.7897 183.454L25.7897 215.645L35.7034 215.645ZM36.9033 182.254L24.5897 182.254L24.5897 216.845L36.9033 216.845L36.9033 182.254Z" fill="black"/>
<path d="M36.9038 0.649414L36.9038 35.2408L24.5902 35.2408L24.5902 0.649414L36.9038 0.649414Z" fill="#5B5B5C"/>
<path fill-rule="evenodd" clip-rule="evenodd" d="M35.7038 34.0408L35.7038 1.84938L25.7902 1.84938L25.7902 34.0408L35.7038 34.0408ZM36.9038 0.649414L24.5902 0.649414L24.5902 35.2408L36.9038 35.2408L36.9038 0.649414Z" fill="black"/>
</svg>
