<svg width="588" height="437" viewBox="0 0 588 437" fill="none" xmlns="http://www.w3.org/2000/svg">
<rect width="588" height="436.258" fill="#D9D9D9"/>
<rect x="37.936" y="18.9678" width="18.9677" height="18.9677" fill="#010F0F"/>
<rect x="37.936" y="369.871" width="18.9677" height="18.9677" fill="#010F0F"/>
<rect x="37.936" y="94.8389" width="18.9677" height="18.9677" fill="#010F0F"/>
<rect x="37.936" y="237.097" width="18.9677" height="18.9677" fill="#010F0F"/>
<rect x="37.936" y="151.742" width="18.9677" height="18.9677" fill="#010F0F"/>
<rect x="37.936" y="294" width="18.9677" height="18.9677" fill="#010F0F"/>
<rect x="37.936" y="47.4194" width="18.9677" height="18.9677" fill="#010F0F"/>
<rect x="37.936" y="398.322" width="18.9677" height="18.9677" fill="#010F0F"/>
<rect x="37.936" y="123.29" width="18.9677" height="18.9677" fill="#010F0F"/>
<rect x="37.936" y="265.548" width="18.9677" height="18.9677" fill="#010F0F"/>
<rect x="37.936" y="180.193" width="18.9677" height="18.9677" fill="#010F0F"/>
<rect x="37.936" y="322.452" width="18.9677" height="18.9677" fill="#010F0F"/>
<rect x="75.8708" y="18.9678" width="18.9677" height="18.9677" fill="#010F0F"/>
<rect x="75.8708" y="369.871" width="18.9677" height="18.9677" fill="#010F0F"/>
<rect x="75.8708" y="94.8389" width="18.9677" height="18.9677" fill="#010F0F"/>
<rect x="75.8708" y="237.097" width="18.9677" height="18.9677" fill="#010F0F"/>
<rect x="75.8708" y="151.742" width="18.9677" height="18.9677" fill="#010F0F"/>
<rect x="75.8708" y="294" width="18.9677" height="18.9677" fill="#010F0F"/>
<rect x="75.8708" y="47.4194" width="18.9677" height="18.9677" fill="#010F0F"/>
<rect x="75.8708" y="398.322" width="18.9677" height="18.9677" fill="#010F0F"/>
<rect x="75.8708" y="123.29" width="18.9677" height="18.9677" fill="#010F0F"/>
<rect x="75.8708" y="265.548" width="18.9677" height="18.9677" fill="#010F0F"/>
<rect x="75.8708" y="180.193" width="18.9677" height="18.9677" fill="#010F0F"/>
<rect x="75.8708" y="322.452" width="18.9677" height="18.9677" fill="#010F0F"/>
<rect x="113.807" y="18.9678" width="18.9677" height="18.9677" fill="#010F0F"/>
<rect x="113.807" y="369.871" width="18.9677" height="18.9677" fill="#010F0F"/>
<rect x="113.807" y="94.8389" width="18.9677" height="18.9677" fill="#010F0F"/>
<rect x="113.807" y="237.097" width="18.9677" height="18.9677" fill="#010F0F"/>
<rect x="113.807" y="151.742" width="18.9677" height="18.9677" fill="#010F0F"/>
<rect x="113.807" y="294" width="18.9677" height="18.9677" fill="#010F0F"/>
<rect x="113.807" y="47.4194" width="18.9677" height="18.9677" fill="#010F0F"/>
<rect x="113.807" y="398.322" width="18.9677" height="18.9677" fill="#010F0F"/>
<rect x="113.807" y="123.29" width="18.9677" height="18.9677" fill="#010F0F"/>
<rect x="113.807" y="265.548" width="18.9677" height="18.9677" fill="#010F0F"/>
<rect x="113.807" y="180.193" width="18.9677" height="18.9677" fill="#010F0F"/>
<rect x="113.807" y="322.452" width="18.9677" height="18.9677" fill="#010F0F"/>
<rect x="151.742" y="18.9678" width="18.9677" height="18.9677" fill="#010F0F"/>
<rect x="151.742" y="369.871" width="18.9677" height="18.9677" fill="#010F0F"/>
<rect x="151.742" y="94.8389" width="18.9677" height="18.9677" fill="#010F0F"/>
<rect x="151.742" y="237.097" width="18.9677" height="18.9677" fill="#010F0F"/>
<rect x="151.742" y="151.742" width="18.9677" height="18.9677" fill="#010F0F"/>
<rect x="151.742" y="294" width="18.9677" height="18.9677" fill="#010F0F"/>
<rect x="189.678" y="94.8389" width="18.9677" height="18.9677" fill="#010F0F"/>
<rect x="189.678" y="237.097" width="18.9677" height="18.9677" fill="#010F0F"/>
<rect x="189.678" y="151.742" width="18.9677" height="18.9677" fill="#010F0F"/>
<rect x="189.678" y="294" width="18.9677" height="18.9677" fill="#010F0F"/>
<rect x="151.742" y="47.4194" width="18.9677" height="18.9677" fill="#010F0F"/>
<rect x="151.742" y="398.322" width="18.9677" height="18.9677" fill="#010F0F"/>
<rect x="151.742" y="123.29" width="18.9677" height="18.9677" fill="#010F0F"/>
<rect x="151.742" y="265.548" width="18.9677" height="18.9677" fill="#010F0F"/>
<rect x="151.742" y="180.193" width="18.9677" height="18.9677" fill="#010F0F"/>
<rect x="151.742" y="322.452" width="18.9677" height="18.9677" fill="#010F0F"/>
<rect x="189.678" y="123.29" width="18.9677" height="18.9677" fill="#010F0F"/>
<rect x="189.678" y="265.548" width="18.9677" height="18.9677" fill="#010F0F"/>
<rect x="189.678" y="180.193" width="18.9677" height="18.9677" fill="#010F0F"/>
<rect x="189.678" y="322.452" width="18.9677" height="18.9677" fill="#010F0F"/>
<rect x="227.613" y="18.9678" width="18.9677" height="18.9677" fill="#010F0F"/>
<rect x="227.613" y="369.871" width="18.9677" height="18.9677" fill="#010F0F"/>
<rect x="227.613" y="94.8389" width="18.9677" height="18.9677" fill="#010F0F"/>
<rect x="227.613" y="237.097" width="18.9677" height="18.9677" fill="#010F0F"/>
<rect x="227.613" y="151.742" width="18.9677" height="18.9677" fill="#010F0F"/>
<rect x="227.613" y="294" width="18.9677" height="18.9677" fill="#010F0F"/>
<rect x="227.613" y="47.4194" width="18.9677" height="18.9677" fill="#010F0F"/>
<rect x="227.613" y="398.322" width="18.9677" height="18.9677" fill="#010F0F"/>
<rect x="227.613" y="123.29" width="18.9677" height="18.9677" fill="#010F0F"/>
<rect x="227.613" y="265.548" width="18.9677" height="18.9677" fill="#010F0F"/>
<rect x="227.613" y="180.193" width="18.9677" height="18.9677" fill="#010F0F"/>
<rect x="227.613" y="322.452" width="18.9677" height="18.9677" fill="#010F0F"/>
<rect x="265.549" y="18.9678" width="18.9677" height="18.9677" fill="#010F0F"/>
<rect x="265.549" y="369.871" width="18.9677" height="18.9677" fill="#010F0F"/>
<rect x="265.549" y="94.8389" width="18.9677" height="18.9677" fill="#010F0F"/>
<rect x="265.549" y="237.097" width="18.9677" height="18.9677" fill="#010F0F"/>
<rect x="265.549" y="151.742" width="18.9677" height="18.9677" fill="#010F0F"/>
<rect x="265.549" y="294" width="18.9677" height="18.9677" fill="#010F0F"/>
<rect x="265.549" y="47.4194" width="18.9677" height="18.9677" fill="#010F0F"/>
<rect x="265.549" y="398.322" width="18.9677" height="18.9677" fill="#010F0F"/>
<rect x="265.549" y="123.29" width="18.9677" height="18.9677" fill="#010F0F"/>
<rect x="265.549" y="265.548" width="18.9677" height="18.9677" fill="#010F0F"/>
<rect x="265.549" y="180.193" width="18.9677" height="18.9677" fill="#010F0F"/>
<rect x="265.549" y="322.452" width="18.9677" height="18.9677" fill="#010F0F"/>
<rect x="303.484" y="18.9678" width="18.9677" height="18.9677" fill="#010F0F"/>
<rect x="303.484" y="369.871" width="18.9677" height="18.9677" fill="#010F0F"/>
<rect x="303.484" y="94.8389" width="18.9677" height="18.9677" fill="#010F0F"/>
<rect x="303.484" y="237.097" width="18.9677" height="18.9677" fill="#010F0F"/>
<rect x="303.484" y="151.742" width="18.9677" height="18.9677" fill="#010F0F"/>
<rect x="303.484" y="294" width="18.9677" height="18.9677" fill="#010F0F"/>
<rect x="303.484" y="47.4194" width="18.9677" height="18.9677" fill="#010F0F"/>
<rect x="303.484" y="398.322" width="18.9677" height="18.9677" fill="#010F0F"/>
<rect x="303.484" y="123.29" width="18.9677" height="18.9677" fill="#010F0F"/>
<rect x="303.484" y="265.548" width="18.9677" height="18.9677" fill="#010F0F"/>
<rect x="303.484" y="180.193" width="18.9677" height="18.9677" fill="#010F0F"/>
<rect x="303.484" y="322.452" width="18.9677" height="18.9677" fill="#010F0F"/>
<rect x="341.42" y="18.9678" width="18.9677" height="18.9677" fill="#010F0F"/>
<rect x="341.42" y="369.871" width="18.9677" height="18.9677" fill="#010F0F"/>
<rect x="341.42" y="94.8389" width="18.9677" height="18.9677" fill="#010F0F"/>
<rect x="341.42" y="237.097" width="18.9677" height="18.9677" fill="#010F0F"/>
<rect x="341.42" y="151.742" width="18.9677" height="18.9677" fill="#010F0F"/>
<rect x="341.42" y="294" width="18.9677" height="18.9677" fill="#010F0F"/>
<rect x="379.354" y="94.8389" width="18.9677" height="18.9677" fill="#010F0F"/>
<rect x="379.354" y="237.097" width="18.9677" height="18.9677" fill="#010F0F"/>
<rect x="379.354" y="151.742" width="18.9677" height="18.9677" fill="#010F0F"/>
<rect x="379.354" y="294" width="18.9677" height="18.9677" fill="#010F0F"/>
<rect x="341.42" y="47.4194" width="18.9677" height="18.9677" fill="#010F0F"/>
<rect x="341.42" y="398.322" width="18.9677" height="18.9677" fill="#010F0F"/>
<rect x="341.42" y="123.29" width="18.9677" height="18.9677" fill="#010F0F"/>
<rect x="341.42" y="265.548" width="18.9677" height="18.9677" fill="#010F0F"/>
<rect x="341.42" y="180.193" width="18.9677" height="18.9677" fill="#010F0F"/>
<rect x="341.42" y="322.452" width="18.9677" height="18.9677" fill="#010F0F"/>
<rect x="379.354" y="123.29" width="18.9677" height="18.9677" fill="#010F0F"/>
<rect x="379.354" y="265.548" width="18.9677" height="18.9677" fill="#010F0F"/>
<rect x="379.354" y="180.193" width="18.9677" height="18.9677" fill="#010F0F"/>
<rect x="379.354" y="322.452" width="18.9677" height="18.9677" fill="#010F0F"/>
<rect x="417.291" y="18.9678" width="18.9677" height="18.9677" fill="#010F0F"/>
<rect x="417.291" y="369.871" width="18.9677" height="18.9677" fill="#010F0F"/>
<rect x="417.291" y="94.8389" width="18.9677" height="18.9677" fill="#010F0F"/>
<rect x="417.291" y="237.097" width="18.9677" height="18.9677" fill="#010F0F"/>
<rect x="417.291" y="151.742" width="18.9677" height="18.9677" fill="#010F0F"/>
<rect x="417.291" y="294" width="18.9677" height="18.9677" fill="#010F0F"/>
<rect x="417.291" y="47.4194" width="18.9677" height="18.9677" fill="#010F0F"/>
<rect x="417.291" y="398.322" width="18.9677" height="18.9677" fill="#010F0F"/>
<rect x="417.291" y="123.29" width="18.9677" height="18.9677" fill="#010F0F"/>
<rect x="417.291" y="265.548" width="18.9677" height="18.9677" fill="#010F0F"/>
<rect x="417.291" y="180.193" width="18.9677" height="18.9677" fill="#010F0F"/>
<rect x="417.291" y="322.452" width="18.9677" height="18.9677" fill="#010F0F"/>
<rect x="455.227" y="18.9678" width="18.9677" height="18.9677" fill="#010F0F"/>
<rect x="455.227" y="369.871" width="18.9677" height="18.9677" fill="#010F0F"/>
<rect x="455.227" y="94.8389" width="18.9677" height="18.9677" fill="#010F0F"/>
<rect x="455.227" y="237.097" width="18.9677" height="18.9677" fill="#010F0F"/>
<rect x="455.227" y="151.742" width="18.9677" height="18.9677" fill="#010F0F"/>
<rect x="455.227" y="294" width="18.9677" height="18.9677" fill="#010F0F"/>
<rect x="455.227" y="47.4194" width="18.9677" height="18.9677" fill="#010F0F"/>
<rect x="455.227" y="398.322" width="18.9677" height="18.9677" fill="#010F0F"/>
<rect x="455.227" y="123.29" width="18.9677" height="18.9677" fill="#010F0F"/>
<rect x="455.227" y="265.548" width="18.9677" height="18.9677" fill="#010F0F"/>
<rect x="455.227" y="180.193" width="18.9677" height="18.9677" fill="#010F0F"/>
<rect x="455.227" y="322.452" width="18.9677" height="18.9677" fill="#010F0F"/>
<rect x="493.162" y="18.9678" width="18.9677" height="18.9677" fill="#010F0F"/>
<rect x="493.162" y="369.871" width="18.9677" height="18.9677" fill="#010F0F"/>
<rect x="493.162" y="94.8389" width="18.9677" height="18.9677" fill="#010F0F"/>
<rect x="493.162" y="237.097" width="18.9677" height="18.9677" fill="#010F0F"/>
<rect x="493.162" y="151.742" width="18.9677" height="18.9677" fill="#010F0F"/>
<rect x="493.162" y="294" width="18.9677" height="18.9677" fill="#010F0F"/>
<rect x="493.162" y="47.4194" width="18.9677" height="18.9677" fill="#010F0F"/>
<rect x="493.162" y="398.322" width="18.9677" height="18.9677" fill="#010F0F"/>
<rect x="493.162" y="123.29" width="18.9677" height="18.9677" fill="#010F0F"/>
<rect x="493.162" y="265.548" width="18.9677" height="18.9677" fill="#010F0F"/>
<rect x="493.162" y="180.193" width="18.9677" height="18.9677" fill="#010F0F"/>
<rect x="493.162" y="322.452" width="18.9677" height="18.9677" fill="#010F0F"/>
<rect x="531.098" y="18.9678" width="18.9677" height="18.9677" fill="#010F0F"/>
<rect x="531.098" y="369.871" width="18.9677" height="18.9677" fill="#010F0F"/>
<rect x="531.098" y="94.8389" width="18.9677" height="18.9677" fill="#010F0F"/>
<rect x="531.098" y="237.097" width="18.9677" height="18.9677" fill="#010F0F"/>
<rect x="531.098" y="151.742" width="18.9677" height="18.9677" fill="#010F0F"/>
<rect x="531.098" y="294" width="18.9677" height="18.9677" fill="#010F0F"/>
<rect x="531.098" y="47.4194" width="18.9677" height="18.9677" fill="#010F0F"/>
<rect x="531.098" y="398.322" width="18.9677" height="18.9677" fill="#010F0F"/>
<rect x="531.098" y="123.29" width="18.9677" height="18.9677" fill="#010F0F"/>
<rect x="531.098" y="265.548" width="18.9677" height="18.9677" fill="#010F0F"/>
<rect x="531.098" y="180.193" width="18.9677" height="18.9677" fill="#010F0F"/>
<rect x="531.098" y="322.452" width="18.9677" height="18.9677" fill="#010F0F"/>
<line x1="38" y1="355.822" x2="550" y2="355.822" stroke="#3F518C" stroke-width="3"/>
<line x1="228" y1="427.822" x2="550" y2="427.822" stroke="#832827" stroke-width="3"/>
<line x1="38" y1="9.82227" x2="550" y2="9.82227" stroke="#3F518C" stroke-width="3"/>
<line x1="38" y1="81.8223" x2="360" y2="81.8222" stroke="#832827" stroke-width="3"/>
</svg>
